<svg width="24" height="24" viewBox="0 0 24 24" fill="none" xmlns="http://www.w3.org/2000/svg">
<path fill-rule="evenodd" clip-rule="evenodd" d="M8.75552 5H10.6333V6.875H14.3888V8.75H13.326C13.0469 10.3156 12.3099 11.723 11.2582 12.8292C12.0094 13.1932 12.8466 13.4079 13.7311 13.4347L14.6456 10.625H16.9486L20 20H18.0255L17.4153 18.125H14.1789L13.5687 20H11.5942L13.1323 15.2743C11.8786 15.1517 10.7099 14.7395 9.69439 14.1054C8.46912 14.8704 7.02098 15.3125 5.46944 15.3125H5V13.4375H5.46944C6.42343 13.4375 7.32631 13.2189 8.13057 12.8292C7.51977 12.1867 7.01511 11.4426 6.64464 10.625H8.77597C9.0374 11.0327 9.34611 11.4073 9.69439 11.741C10.5276 10.9426 11.1343 9.91041 11.4089 8.75H5V6.875H8.75552V5ZM16.805 16.25L15.7971 13.1533L14.7892 16.25H16.805Z" fill="#04A488"/>
</svg>
