<svg width="45" height="50" viewBox="0 0 45 50" fill="none" xmlns="http://www.w3.org/2000/svg">
<path d="M34.7653 12.1597C34.8851 12.0557 35.026 11.9788 35.1782 11.9343C35.3305 11.8897 35.4906 11.8785 35.6475 11.9015C35.8016 11.9232 35.9489 11.9792 36.0786 12.0653C36.2082 12.1515 36.3169 12.2656 36.3966 12.3992C36.4889 12.5836 36.5414 12.7854 36.5507 12.9914C36.6179 13.7974 36.4621 14.6063 36.1006 15.3298C35.9302 15.6954 35.6829 16.02 35.3756 16.2814C35.0793 16.5172 34.7815 16.6305 34.2902 16.3821C34.2227 16.7348 34.1266 17.0814 34.0029 17.4186C33.7703 18.0403 32.5522 20.075 30.969 21.0446C30.9708 21.544 30.9977 22.0646 31.1643 22.4772C31.5222 23.3636 33.4559 24.4789 33.5891 24.5371C33.5891 24.5371 32.4932 28.687 27.3144 28.687C22.1355 28.687 21.4541 24.5371 21.4541 24.5371C21.5873 24.4789 23.2172 23.5189 23.5765 22.6325C23.745 22.2164 23.7707 21.6936 23.7721 21.1932C23.0057 20.8003 22.3293 20.2523 21.786 19.5841C21.058 18.7007 20.5428 17.6617 20.28 16.5476C19.8242 16.7296 19.4839 16.4943 19.2174 16.2818C18.9102 16.0204 18.6629 15.6958 18.4925 15.3302C18.131 14.6067 17.9754 13.7978 18.0426 12.9918C18.0519 12.7858 18.1044 12.5841 18.1967 12.3996C18.2765 12.266 18.3851 12.1519 18.5148 12.0657C18.6444 11.9796 18.7917 11.9236 18.9458 11.9019C19.1028 11.879 19.2629 11.8901 19.4151 11.9347C19.5674 11.9792 19.7082 12.0561 19.8281 12.1601C19.8281 12.1601 19.3303 4.95093 26.7593 4.95093C35.2982 4.95093 34.7653 12.1597 34.7653 12.1597Z" fill="#E6F4F3"/>
<path d="M21.5003 2.38333C22.114 1.61067 23.1408 1.00489 24.1735 0.742854C25.3448 0.410868 26.5638 0.278807 27.779 0.352226C30.2868 0.569041 32.7404 1.74328 34.3162 3.70586C36.1004 5.92797 36.3948 9.42809 35.5107 11.891C35.241 11.8848 34.9786 11.9787 34.774 12.1546C34.6238 11.249 34.184 9.93261 33.8624 9.05536C33.8208 8.90333 33.7354 8.76688 33.617 8.66292C33.4623 8.56509 33.2868 8.5048 33.1047 8.48689C31.9542 8.29269 31.2971 8.15245 30.1223 8.09474C28.858 8.03259 27.9452 8.62825 26.7313 8.34138C26.0182 8.17284 24.4238 7.36411 23.88 6.961C23.7335 6.85405 23.6025 6.75043 23.4803 6.66969C23.3347 6.57259 23.1427 6.4791 22.9886 6.56122C22.9581 6.5786 22.9294 6.5989 22.9029 6.62184C22.821 6.68842 22.7006 6.78414 22.6243 6.85266C20.9247 8.29532 19.9645 10.3151 20.0242 12.328V12.3345L19.83 12.1593C19.7102 12.0553 19.5693 11.9785 19.417 11.9339C19.2648 11.8893 19.1047 11.8782 18.9477 11.9011C18.8333 11.9183 18.7225 11.954 18.6195 12.0068C18.034 10.2019 18.124 7.58648 18.5313 6.21442L18.6409 5.8453C19.0641 4.58588 19.7595 3.65842 20.566 3.20162L21.5003 2.38333Z" fill="#87796F"/>
<path d="M44.5315 49.6372C43.8533 40.2662 42.8167 32.1 41.9588 29.2416C41.774 28.5804 41.3901 27.992 40.8594 27.5565C40.3837 27.2027 39.8739 26.8975 39.3375 26.6452C37.7934 25.8994 35.3211 24.9079 33.7386 24.2478L32.2255 23.6885C32.0082 24.9092 31.6373 26.5018 31.2314 27.6078C30.9 28.5103 29.8133 31.5844 29.0735 33.3414C28.5172 34.6614 27.8893 35.9501 27.1925 37.2018C25.3945 33.1078 23.2144 28.8503 22.6469 23.7184L20.9971 24.309L20.808 24.3876C19.2158 25.049 16.7794 26.0234 15.2958 26.7403C14.8176 26.957 14.3793 27.253 13.9995 27.6156C13.58 28.0131 13.2476 28.4933 13.0234 29.0259C11.915 31.9201 11.7997 33.3237 10.6176 36.3285C10.1071 35.1157 9.63658 33.9493 9.11264 32.664C7.55706 33.4836 5.0786 34.6187 3.52344 34.9558C4.29859 37.438 5.07707 40.1082 6.16906 42.594C6.92812 44.321 7.96739 45.9307 9.7918 46.4108C10.4752 46.6025 11.1933 46.6354 11.8914 46.5072C12.5895 46.379 13.249 46.093 13.8197 45.671C14.8053 44.9508 15.8908 43.4919 16.5736 42.6295L16.6361 42.5539C16.7193 43.5984 16.6987 44.6069 16.6987 45.7125C16.6987 47.0927 16.6168 48.1123 16.6154 49.6784L44.5315 49.6372Z" fill="#E6F4F3"/>
<path d="M3.59462 33.3949C4.16101 33.1868 6.89124 32.1801 8.02179 31.5996C8.14386 31.8451 8.39355 32.425 8.56279 32.7801L8.63409 32.9102C7.27022 33.6014 5.43623 34.4239 4.05919 34.8187L4.00869 34.7027C3.83668 34.2755 3.58283 33.5417 3.52734 33.4196L3.59462 33.3949Z" fill="#E6F4F3"/>
<path d="M21.6251 24.8246C21.8169 24.7277 22.0005 24.6154 22.1742 24.4888C22.5045 24.2698 22.8184 24.027 23.1133 23.7622C23.4106 23.5118 23.6572 23.2067 23.8395 22.8633C24.0846 22.3459 24.1053 21.7496 24.108 21.1871C24.11 20.7586 23.4441 20.758 23.4422 21.1871C23.4462 21.4537 23.4327 21.7203 23.402 21.9852C23.3761 22.1941 23.3192 22.398 23.2332 22.59C23.0624 22.8804 22.8405 23.1375 22.5783 23.349C22.3266 23.5684 22.06 23.7701 21.7804 23.9525C21.6245 24.064 21.4602 24.1634 21.289 24.2497C21.2133 24.2947 21.1583 24.3677 21.136 24.453C21.1136 24.5382 21.1257 24.6288 21.1696 24.7052C21.2156 24.7799 21.2886 24.834 21.3734 24.8562C21.4583 24.8785 21.5484 24.8671 21.6251 24.8246Z" fill="#211715"/>
<path d="M30.6406 21.1828C30.6509 21.7446 30.6822 22.3741 30.9946 22.8613C31.2274 23.2002 31.5119 23.5005 31.8376 23.7513C32.162 24.0156 32.5014 24.2608 32.8541 24.4857C33.036 24.6119 33.2266 24.725 33.4244 24.8243C33.5012 24.8663 33.5912 24.8774 33.6759 24.8552C33.7606 24.833 33.8336 24.7792 33.88 24.7049C33.9238 24.6285 33.9359 24.5379 33.9135 24.4526C33.8912 24.3674 33.8362 24.2944 33.7605 24.2493C33.5822 24.1601 33.4103 24.0588 33.2457 23.9462C32.9439 23.7577 32.6525 23.5529 32.3729 23.3327C32.2132 23.206 32.0601 23.0713 31.9142 22.929C31.8024 22.8213 31.6995 22.7046 31.6065 22.5803C31.558 22.5112 31.5151 22.4383 31.4785 22.3622C31.5148 22.4385 31.4524 22.2902 31.4507 22.2841C31.4266 22.2118 31.4061 22.1383 31.3894 22.064C31.3316 21.7738 31.3039 21.4784 31.3069 21.1826C31.2991 20.7546 30.6331 20.7532 30.641 21.1826L30.6406 21.1828Z" fill="#211715"/>
<path d="M31.9213 22.831C31.7377 22.4983 31.4997 22.1987 31.2172 21.9446C30.6816 22.6645 29.4588 23.5636 27.9934 24.1531C27.8886 24.1874 27.7918 24.2422 27.7084 24.3143C27.6733 24.3796 27.7416 24.4371 27.7736 24.4884C27.8444 24.5743 27.9213 24.655 28.0036 24.7299C27.5431 24.7299 27.2007 24.7317 26.7675 24.732C26.8508 24.6566 26.9285 24.5752 26.9999 24.4884C27.0321 24.4371 27.1003 24.3796 27.0652 24.3143C26.9818 24.2422 26.885 24.1874 26.7803 24.1531C25.3147 23.5636 24.0919 22.6645 23.5565 21.9446C23.0735 22.3885 22.8918 22.7408 22.6016 23.3007C23.0947 28.6199 25.3444 32.997 27.1912 37.202C27.8879 35.9503 28.5158 34.6616 29.0722 33.3416C29.812 31.5846 30.8987 28.5105 31.2301 27.608C31.6601 26.4357 32.0513 24.7162 32.2616 23.473C32.1326 23.2262 32.0285 23.0189 31.9213 22.831Z" fill="#E6F4F3"/>
<path d="M21.3675 38.9673L21.1694 38.5834C20.6007 37.6363 20.2783 35.9962 20.1591 35.1448C20.014 34.1083 20.3949 31.8738 20.6012 31.0328C20.7906 31.3696 21.6241 33.2982 21.856 33.8425C22.2968 34.8769 23.0526 36.2839 22.7322 37.4258C22.4901 38.2884 22.0987 38.3996 21.6113 38.6571C21.0913 38.9318 20.6115 38.7764 20.123 39.0167C19.7616 39.1946 19.6919 39.536 19.7387 39.8719C19.7996 40.3098 20.1738 40.7863 20.6647 40.6745C20.8886 40.6234 21.0684 40.4629 21.268 40.3499C21.5331 40.1998 21.8616 40.0697 22.1376 39.9409C22.7689 39.6463 23.362 39.3263 23.7477 38.7308C24.1639 38.0889 24.4098 37.3651 24.3265 36.6049C24.0424 34.0162 22.2761 31.8258 21.4851 29.5016C21.4158 28.3138 21.8578 25.5482 22.5236 24.1245C22.5236 24.1245 22.5842 24.0551 22.6731 23.951C22.6254 23.5553 22.5877 23.1545 22.56 22.7483C21.7202 23.1256 20.6831 24.3974 20.3697 26.1867C20.1966 27.1745 19.9659 28.1942 19.7593 29.3648C18.9846 31.293 18.7023 33.9195 18.7883 35.2005C18.8715 36.4459 19.2163 38.0304 19.8703 39.0511L20.0572 39.4758L21.3675 38.9673Z" fill="#E6F4F3"/>
<path d="M35.1441 34.3627C35.2258 33.648 35.0002 32.8602 34.3567 32.5231C34.9551 29.2677 34.7496 27.6691 34.3455 25.8354C34.1077 24.7563 33.3403 23.3108 32.3721 22.7546C32.3305 23.0774 32.2672 23.4735 32.1876 23.9088C32.4112 24.1322 32.7502 24.9106 32.8504 25.2805C33.5535 27.887 33.625 29.5505 33.1936 32.369C32.4205 32.5393 32.0977 33.2783 32.0293 33.5645C31.8468 34.3335 31.9083 35.3319 32.6023 35.8279C32.7607 35.9403 32.9417 36.0167 33.1327 36.0518C34.2285 36.2599 34.9418 35.4585 35.1163 34.5434C35.1278 34.484 35.1371 34.4235 35.1441 34.3627Z" fill="#E6F4F3"/>
<path d="M23.301 40.42C23.2935 40.3047 23.2566 40.1931 23.1938 40.096C23.1311 39.9989 23.0446 39.9194 22.9425 39.8652L22.608 39.707C22.4554 39.7893 22.2976 39.8657 22.1372 39.9406C21.9338 40.0355 21.7022 40.1311 21.4883 40.2347C21.569 40.4341 21.6739 40.6227 21.8007 40.7965C21.9198 40.9556 22.0938 41.0647 22.2888 41.1027C22.4124 41.116 22.5374 41.1044 22.6564 41.0684C22.9061 41.0027 23.1627 40.8717 23.2702 40.6364C23.2987 40.5681 23.3093 40.4936 23.301 40.42Z" fill="#04A488"/>
<path d="M19.7243 39.7474C19.7057 39.5995 19.7339 39.4495 19.805 39.3184C19.876 39.1874 19.9863 39.0819 20.1204 39.0168C20.3868 38.9075 20.6708 38.8471 20.9586 38.8384C21.1785 39.3049 21.2967 39.8127 21.3054 40.3283C21.2916 40.335 21.2777 40.3422 21.2648 40.35C21.0652 40.463 20.8854 40.6235 20.6615 40.6746C20.1706 40.7864 19.7963 40.3099 19.7354 39.872C19.7302 39.8303 19.7261 39.7887 19.7243 39.7474Z" fill="#04A488"/>
<path d="M25.5968 32.7314L25.5981 32.7136C25.8901 30.3202 26.2916 27.3851 26.2916 27.3013C26.2857 27.1521 26.2616 27.0042 26.2199 26.8609C26.2031 26.7939 26.1864 26.7292 26.1721 26.6622C26.083 26.2813 26.0263 26.0166 25.9455 25.5978C26.0604 25.4783 26.1739 25.3581 26.283 25.2383C26.487 25.0145 26.6502 24.8499 26.7701 24.7322C27.203 24.7322 27.5452 24.7304 28.0055 24.7297C28.1256 24.8479 28.2899 25.0127 28.4953 25.2383C28.6367 25.3934 28.7851 25.5489 28.9344 25.7031C28.8883 25.8878 28.8622 25.9921 28.8622 25.9921C28.8167 26.1739 28.7665 26.363 28.6995 26.5689C28.6035 26.8189 28.5453 27.0819 28.5271 27.3491C28.5247 27.4856 28.9155 30.0609 29.2835 32.5261L29.3154 32.7544C29.2322 32.9625 29.1516 33.1588 29.0746 33.3415C28.5183 34.6615 27.8903 35.9502 27.1936 37.2018C26.6609 35.989 26.0948 34.7619 25.5469 33.5021C25.5709 33.1353 25.5918 32.8093 25.5968 32.7314Z" fill="#029687"/>
<path d="M29.9269 26.7643C30.8334 25.7068 31.581 24.523 32.1464 23.2502C31.8711 22.7193 31.686 22.3752 31.2177 21.9446C30.6821 22.6645 29.4593 23.5636 27.9939 24.1531C27.8892 24.1874 27.7923 24.2422 27.709 24.3143C27.6739 24.3796 27.7421 24.4371 27.7742 24.4884C27.8247 24.5691 28.0722 24.7761 28.4934 25.2384C28.9719 25.7631 29.5313 26.2917 29.9269 26.7643Z" fill="#E6F4F3"/>
<path d="M24.8484 26.7643C23.9419 25.7069 23.1943 24.5231 22.6289 23.2502C22.9041 22.7193 23.0893 22.3752 23.5583 21.9446C24.0938 22.6645 25.3166 23.5636 26.7821 24.1531C26.8868 24.1874 26.9837 24.2422 27.067 24.3143C27.1021 24.3796 27.0339 24.4371 27.0017 24.4884C26.9513 24.5691 26.7037 24.7761 26.2824 25.2384C25.8039 25.7631 25.244 26.2917 24.8484 26.7643Z" fill="#E6F4F3"/>
<path d="M20.9068 23.9886C18.9754 24.7932 17.0088 25.5382 15.126 26.4528C14.0163 26.9916 13.1065 27.8677 12.6639 29.033C12.2586 30.1011 11.9187 31.1885 11.601 32.2848C11.2458 33.5114 10.8735 34.7294 10.4176 35.9232C10.3949 36.0083 10.4065 36.0989 10.45 36.1756C10.4935 36.2522 10.5654 36.3086 10.6501 36.3327C10.7352 36.3542 10.8253 36.3421 10.9016 36.2988C10.9779 36.2554 11.0345 36.1843 11.0596 36.1002C11.8416 34.0527 12.3321 31.9155 13.0688 29.8536C13.2665 29.3001 13.4572 28.7625 13.8294 28.2979C14.184 27.8501 14.6242 27.4773 15.1243 27.2013C16.0038 26.7158 16.9582 26.3429 17.883 25.954C18.9474 25.5065 20.018 25.0744 21.0838 24.6301C21.1673 24.6042 21.2379 24.5474 21.2811 24.4714C21.3243 24.3953 21.3369 24.3056 21.3163 24.2206C21.2923 24.1357 21.2359 24.0638 21.1592 24.0202C21.0826 23.9767 20.9919 23.9652 20.9068 23.9881V23.9886Z" fill="#211715"/>
<path d="M33.6496 24.5688C35.5028 25.3416 37.3848 26.0648 39.1915 26.9437C40.0611 27.3668 40.9318 27.8524 41.3971 28.7358C41.6798 29.2725 41.8021 29.9047 41.9332 30.4935C42.2618 31.9697 42.4929 33.4683 42.7064 34.9649C43.0011 37.0305 43.2417 39.1039 43.4577 41.1794C43.7167 43.6637 43.9386 46.1513 44.1236 48.6424C44.1487 48.9739 44.1733 49.3053 44.1972 49.6367C44.1993 49.7244 44.235 49.8079 44.297 49.8699C44.359 49.9318 44.4425 49.9676 44.5301 49.9697C44.6182 49.9689 44.7025 49.9336 44.7648 49.8713C44.827 49.8091 44.8623 49.7248 44.8631 49.6367C44.6768 47.0678 44.456 44.5015 44.2007 41.9379C43.9803 39.7505 43.7313 37.5654 43.4318 35.3873C43.2132 33.797 42.9753 32.2055 42.6436 30.6344C42.54 30.0938 42.4057 29.5595 42.2413 29.0342C42.0747 28.521 41.8023 28.0484 41.4419 27.647C41.0891 27.2868 40.6832 26.9827 40.2384 26.7453C39.3575 26.2362 38.4056 25.8437 37.4716 25.4444C36.4708 25.0163 35.4637 24.6032 34.4576 24.1876C34.2468 24.1006 34.0363 24.0133 33.826 23.9256C33.7409 23.9027 33.6501 23.9142 33.5734 23.9578C33.4967 24.0013 33.4403 24.0733 33.4164 24.1582C33.3952 24.2433 33.4075 24.3333 33.4508 24.4095C33.4941 24.4857 33.5651 24.5424 33.649 24.5677L33.6496 24.5688Z" fill="#211715"/>
<path d="M38.2893 49.6785C38.2872 48.4061 38.2119 47.1355 38.206 45.8637C38.2001 44.466 38.1626 43.0532 38.3643 41.6661C38.4614 40.9938 38.5969 40.3263 38.7111 39.6564C38.8251 38.9841 38.9349 38.311 39.0404 37.6371C39.2555 36.2664 39.4552 34.8934 39.6395 33.5181C39.8337 32.0715 40.0108 30.6226 40.1707 29.1713C40.1701 29.0832 40.1349 28.9988 40.0726 28.9365C40.0103 28.8742 39.9259 28.8389 39.8378 28.8384C39.7501 28.8404 39.6666 28.8761 39.6045 28.9381C39.5425 29.0001 39.5068 29.0836 39.5048 29.1713C39.2182 31.8162 38.8689 34.4535 38.4571 37.0833C38.2501 38.4213 38.0204 39.7546 37.7871 41.0881C37.5406 42.4969 37.5357 43.9179 37.5398 45.3438C37.5438 46.7895 37.6212 48.2333 37.623 49.6789C37.623 50.1072 38.2895 50.1081 38.2888 49.6789L38.2893 49.6785Z" fill="#211715"/>
<path d="M14.4375 29.5498C14.7264 32.1805 15.0781 34.8034 15.4926 37.4186C15.7027 38.7594 15.9512 40.0935 16.1692 41.4328C16.3888 42.7807 16.3665 44.1493 16.3641 45.5104C16.3615 46.9005 16.283 48.2886 16.2809 49.6786C16.2802 50.1071 16.9461 50.1076 16.9468 49.6786C16.9488 48.4556 17.0185 47.2344 17.0287 46.0116C17.0401 44.6555 17.0684 43.2876 16.9072 41.9385C16.8252 41.2516 16.6894 40.5726 16.5714 39.8912C16.4557 39.2227 16.3442 38.5535 16.2368 37.8836C16.0198 36.5322 15.8185 35.1785 15.6327 33.8225C15.4375 32.4008 15.2611 30.9766 15.1036 29.55C15.1011 29.4625 15.0653 29.3792 15.0034 29.3173C14.9415 29.2554 14.8582 29.2195 14.7707 29.217C14.6826 29.2176 14.5982 29.2528 14.5359 29.3152C14.4736 29.3775 14.4383 29.4618 14.4378 29.55L14.4375 29.5498Z" fill="#211715"/>
<path d="M18.8718 11.6904C18.5234 10.4447 18.4729 9.11025 18.5847 7.82656C18.6753 6.78618 18.9286 5.73872 19.4596 4.83026C19.7609 4.27992 20.2003 3.81755 20.7347 3.48873C21.1057 3.27482 20.7707 2.69915 20.3986 2.91388C19.2835 3.5567 18.6116 4.77561 18.2556 5.9744C17.9374 7.12582 17.8113 8.32187 17.8826 9.51433C17.9079 10.3092 18.0243 11.0985 18.2294 11.8668C18.3447 12.2788 18.9872 12.1038 18.8714 11.6898L18.8718 11.6904Z" fill="#211715"/>
<path d="M21.7323 2.61884C22.696 1.42448 24.2196 0.971015 25.683 0.762938C27.166 0.549004 28.6787 0.693755 30.0942 1.18506C31.4691 1.65162 32.7082 2.44907 33.7024 3.50718C34.6215 4.53003 35.2379 5.78841 35.4828 7.14158C35.7847 8.62544 35.7056 10.1616 35.2529 11.6066C35.1207 12.0153 35.7636 12.1903 35.8951 11.7836C36.3253 10.3912 36.4338 8.91927 36.2124 7.4788C36.0044 6.02074 35.4609 4.60014 34.5306 3.44892C32.551 0.998758 29.2258 -0.261628 26.1181 0.0454919C24.3564 0.219582 22.4239 0.707313 21.2615 2.14803C21.2014 2.2117 21.168 2.29591 21.168 2.38344C21.168 2.47096 21.2014 2.55517 21.2615 2.61884C21.3242 2.6807 21.4088 2.71538 21.4969 2.71538C21.585 2.71538 21.6696 2.6807 21.7323 2.61884Z" fill="#211715"/>
<path d="M20.3554 12.3282C20.3378 10.9298 20.776 9.56372 21.6038 8.43651C22.0214 7.84779 22.5257 7.32563 23.0995 6.88773C23.1627 6.84029 23.0995 6.86318 23.1584 6.87289C23.2314 6.89833 23.2989 6.93767 23.3569 6.98872C23.5044 7.0897 23.6427 7.20373 23.7897 7.30541C23.9905 7.44413 24.2027 7.5662 24.4159 7.68425C24.9495 7.98222 25.5018 8.24536 26.0694 8.47202C26.6495 8.71008 27.2809 8.79542 27.9034 8.71991C28.6362 8.62919 29.3447 8.39795 30.0901 8.42666C30.8263 8.46369 31.5593 8.54919 32.2842 8.6826L32.9484 8.79704C33.1056 8.82395 33.3517 8.83352 33.4588 8.97307C33.5396 9.11082 33.5998 9.25967 33.6374 9.41489C33.7022 9.59651 33.7654 9.77869 33.8272 9.96143C34.0942 10.7048 34.3029 11.4678 34.4514 12.2436C34.4755 12.3284 34.5319 12.4003 34.6085 12.4438C34.6851 12.4873 34.7758 12.499 34.8609 12.4762C34.945 12.451 35.016 12.3944 35.0593 12.3181C35.1027 12.2418 35.1149 12.1517 35.0934 12.0666C34.9526 11.3267 34.7557 10.5987 34.5041 9.88874C34.3962 9.56415 34.2874 9.2383 34.1639 8.91939C34.1034 8.73123 33.9955 8.56181 33.8505 8.42749C33.6744 8.29272 33.4664 8.20593 33.2468 8.17558C32.4775 8.03104 31.6997 7.89732 30.9205 7.82005C30.4958 7.76671 30.0673 7.74936 29.6397 7.76817C29.2396 7.80513 28.8422 7.86763 28.4501 7.9553C27.7888 8.08791 27.1532 8.15172 26.5044 7.92645C25.9398 7.71981 25.3928 7.46796 24.8687 7.17335C24.6287 7.04337 24.3898 6.90868 24.1633 6.75609C23.859 6.5512 23.5685 6.23937 23.1845 6.20344C22.7972 6.16723 22.4787 6.53067 22.2125 6.7701C21.9156 7.03667 21.6395 7.32549 21.3865 7.63403C20.3051 8.95462 19.6461 10.6083 19.6895 12.3282C19.7002 12.756 20.3662 12.7576 20.3554 12.3282Z" fill="#211715"/>
<path d="M26.3915 27.614C27.0809 27.614 27.7702 27.5987 28.4595 27.5985C28.5478 27.5985 28.6325 27.5634 28.6949 27.501C28.7574 27.4385 28.7924 27.3538 28.7924 27.2655C28.7924 27.1772 28.7574 27.0926 28.6949 27.0301C28.6325 26.9677 28.5478 26.9326 28.4595 26.9326C27.7702 26.9326 27.0809 26.9479 26.3915 26.9482C26.3032 26.9482 26.2185 26.9832 26.1561 27.0457C26.0937 27.1081 26.0586 27.1928 26.0586 27.2811C26.0586 27.3694 26.0937 27.4541 26.1561 27.5165C26.2185 27.5789 26.3032 27.614 26.3915 27.614Z" fill="#211715"/>
<path d="M25.6575 25.8534C25.717 26.1537 25.7817 26.4529 25.8517 26.7509C25.915 26.9382 25.9505 27.1337 25.957 27.3313C25.9431 27.537 25.9055 27.7436 25.8789 27.9479C25.7558 28.8888 25.6329 29.8297 25.51 30.7707C25.4268 31.418 25.3453 32.0657 25.2656 32.7138C25.2661 32.802 25.3013 32.8864 25.3636 32.9488C25.426 33.0111 25.5104 33.0463 25.5985 33.0468C25.6862 33.0447 25.7697 33.0089 25.8317 32.9469C25.8936 32.885 25.9294 32.8015 25.9315 32.7138C26.0689 31.5881 26.2146 30.4634 26.3615 29.339C26.4481 28.6781 26.5655 28.0137 26.6203 27.3492C26.6241 27.1424 26.5945 26.9363 26.5328 26.7389C26.4456 26.3868 26.3698 26.0314 26.2993 25.6759C26.2877 25.6337 26.2679 25.5943 26.241 25.5598C26.2142 25.5253 26.1808 25.4964 26.1427 25.4748C26.1047 25.4532 26.0628 25.4393 26.0194 25.4339C25.976 25.4285 25.932 25.4318 25.8899 25.4434C25.8477 25.455 25.8082 25.4748 25.7738 25.5017C25.7393 25.5285 25.7104 25.5619 25.6888 25.6C25.6672 25.638 25.6533 25.6799 25.6479 25.7233C25.6425 25.7667 25.6457 25.8107 25.6574 25.8529L25.6575 25.8534Z" fill="#211715"/>
<path d="M27.9656 24.397L26.7392 24.3996C26.6509 24.3996 26.5662 24.4347 26.5038 24.4971C26.4413 24.5596 26.4062 24.6442 26.4062 24.7325C26.4062 24.8208 26.4413 24.9055 26.5038 24.9679C26.5662 25.0304 26.6509 25.0655 26.7392 25.0655L27.9656 25.0628C28.0539 25.0628 28.1385 25.0277 28.201 24.9653C28.2634 24.9029 28.2985 24.8182 28.2985 24.7299C28.2985 24.6416 28.2634 24.5569 28.201 24.4945C28.1385 24.432 28.0539 24.397 27.9656 24.397Z" fill="#211715"/>
<path d="M29.6025 32.4377C29.4417 31.3628 29.281 30.2878 29.1203 29.2128C29.0609 28.8133 29.0023 28.4136 28.9445 28.0137C28.9241 27.8712 28.9041 27.7287 28.8846 27.5861C28.881 27.5604 28.8924 27.6473 28.8836 27.5789C28.881 27.5582 28.8782 27.5373 28.8756 27.517C28.871 27.4808 28.8656 27.4444 28.8627 27.4081C28.8568 27.254 28.8784 27.1 28.9264 26.9534C29.0072 26.661 29.1067 26.3754 29.1812 26.0807C29.2859 25.6646 28.6439 25.4878 28.5392 25.9037C28.4209 26.3733 28.1737 26.8735 28.1924 27.3652C28.2005 27.5707 28.2437 27.7785 28.2723 27.9817C28.3972 28.8702 28.5321 29.7573 28.665 30.6451C28.7632 31.3017 28.8615 31.9583 28.9599 32.6149C28.9839 32.6997 29.0404 32.7716 29.1171 32.8152C29.1937 32.8587 29.2844 32.8702 29.3696 32.8474C29.4535 32.822 29.5244 32.7653 29.5677 32.6891C29.611 32.6129 29.6233 32.5229 29.6021 32.4379L29.6025 32.4377Z" fill="#211715"/>
<path d="M30.7784 36.6063C30.0432 37.3138 29.2974 38.0099 28.5312 38.6822C28.4687 38.7447 28.4336 38.8294 28.4336 38.9177C28.4336 39.006 28.4686 39.0907 28.5311 39.1531C28.5935 39.2156 28.6782 39.2507 28.7665 39.2507C28.8548 39.2507 28.9395 39.2156 29.002 39.1532C29.7689 38.4807 30.5149 37.7843 31.2492 37.0772C31.3108 37.0145 31.3451 36.9301 31.3448 36.8423C31.3444 36.7545 31.3094 36.6704 31.2473 36.6083C31.1852 36.5461 31.101 36.5111 31.0132 36.5107C30.9254 36.5104 30.841 36.5447 30.7784 36.6063Z" fill="#211715"/>
<path d="M27.6319 41.9119C27.669 41.9452 27.6988 41.9855 27.7347 42.0191C27.7011 41.9746 27.6941 41.9661 27.7139 41.9934C27.7204 42.0026 27.7267 42.012 27.7326 42.0212C27.7429 42.0373 27.7525 42.0539 27.7615 42.0709C27.7754 42.0975 27.7903 42.1553 27.7582 42.056C27.7644 42.0756 27.7727 42.0943 27.7788 42.114C27.7903 42.1518 27.7987 42.1905 27.8042 42.2297L27.7923 42.1412C27.8012 42.2109 27.8012 42.2814 27.7923 42.3511L27.8042 42.2626C27.7987 42.3018 27.7907 42.3406 27.7802 42.3788C27.7758 42.395 27.7708 42.4111 27.7652 42.4271C27.76 42.4428 27.7332 42.5085 27.7604 42.4441C27.7876 42.3798 27.7604 42.4416 27.753 42.4568C27.7457 42.4719 27.7378 42.4856 27.7296 42.4996C27.7214 42.5136 27.7134 42.5253 27.7052 42.5381C27.6706 42.5912 27.7633 42.4712 27.7247 42.5134C27.7109 42.5282 27.6554 42.6034 27.6354 42.6001C27.6376 42.6001 27.7124 42.5461 27.6615 42.5786C27.6531 42.5837 27.6451 42.5894 27.6368 42.5945C27.6181 42.6062 27.5988 42.6171 27.5791 42.6271C27.5703 42.6315 27.5613 42.6356 27.5524 42.6399C27.5056 42.663 27.6218 42.6143 27.5842 42.626C27.5653 42.6321 27.5469 42.6399 27.5279 42.6453C27.4825 42.6588 27.4361 42.6689 27.3892 42.6757L27.4777 42.6637C27.3941 42.6748 27.3094 42.675 27.2258 42.6646L27.3143 42.6765C27.2482 42.6656 27.1832 42.649 27.1201 42.6268C27.2204 42.6589 27.1747 42.6506 27.1489 42.6379C27.1327 42.6299 27.1167 42.6213 27.1011 42.612C27.0895 42.6051 27.0786 42.5974 27.0673 42.5901C27.0216 42.5607 27.1384 42.6512 27.0852 42.6039C27.0549 42.5767 27.0261 42.5479 26.9987 42.5177C26.9596 42.4745 27.0463 42.5881 26.9978 42.5157C26.9887 42.5018 26.9798 42.488 26.9716 42.4731C26.9634 42.4583 26.9568 42.4443 26.9493 42.43C26.9234 42.3796 26.9798 42.5163 26.9542 42.4362C26.9434 42.4023 26.9355 42.3675 26.9304 42.3322L26.9424 42.4207C26.9348 42.3608 26.9348 42.3002 26.9424 42.2404L26.9304 42.3289C26.9365 42.2866 26.9458 42.2449 26.9582 42.204C26.964 42.1845 26.9711 42.1653 26.9779 42.1462C27.0003 42.0828 26.9442 42.2155 26.9745 42.1549C26.9938 42.1155 27.0151 42.0771 27.0384 42.0399C27.0494 42.0224 27.0611 42.0053 27.0732 41.9886C27.0784 41.9797 27.0846 41.9713 27.0916 41.9636C27.0815 41.9724 27.037 42.0298 27.0733 41.9887C27.0858 41.9749 27.0979 41.961 27.1115 41.9471C27.1251 41.9332 27.1758 41.8929 27.1253 41.9314C27.0748 41.97 27.131 41.9288 27.1447 41.9202C27.1632 41.9085 27.1825 41.8976 27.2025 41.8876C27.2058 41.8859 27.2265 41.8737 27.2294 41.8747C27.2294 41.8747 27.1472 41.9062 27.1915 41.8909C27.2108 41.8843 27.2298 41.8771 27.2493 41.8712C27.294 41.858 27.3396 41.8484 27.3857 41.8424L27.2972 41.8542C27.3698 41.8452 27.4433 41.8452 27.516 41.8542L27.4275 41.8422C27.4583 41.8467 27.4889 41.8528 27.5191 41.8606C27.5318 41.864 27.5441 41.8676 27.5565 41.8717C27.5688 41.8757 27.6258 41.8987 27.5677 41.8737C27.5122 41.85 27.5576 41.8698 27.5702 41.8762C27.5828 41.8826 27.5979 41.8901 27.611 41.8986C27.624 41.907 27.6371 41.9155 27.6501 41.924C27.6968 41.9546 27.5863 41.8717 27.6318 41.9108C27.6956 41.9712 27.7797 42.0058 27.8676 42.0079C27.9336 42.008 27.9981 41.9886 28.053 41.952C28.1079 41.9155 28.1507 41.8634 28.176 41.8025C28.2012 41.7415 28.2078 41.6745 28.1949 41.6098C28.182 41.5451 28.1502 41.4857 28.1034 41.4391C27.9143 41.2752 27.6733 41.1834 27.423 41.1803C27.2021 41.1748 26.9845 41.2344 26.7973 41.3517C26.6067 41.4821 26.458 41.6649 26.3692 41.878C26.2804 42.0911 26.2553 42.3254 26.2969 42.5525C26.3592 42.7991 26.5102 43.014 26.7211 43.1562C26.8504 43.2383 26.9947 43.294 27.1456 43.3202C27.2965 43.3463 27.4511 43.3423 27.6005 43.3083C27.7499 43.2744 27.8911 43.2113 28.0159 43.1226C28.1408 43.0338 28.2469 42.9213 28.328 42.7914C28.4299 42.6002 28.4763 42.3845 28.4621 42.1684C28.4398 41.8885 28.3115 41.6277 28.1034 41.4391C28.0408 41.3775 27.9564 41.3432 27.8686 41.3435C27.7808 41.3439 27.6966 41.3789 27.6345 41.441C27.5724 41.5031 27.5374 41.5873 27.537 41.6751C27.5367 41.7629 27.571 41.8473 27.6326 41.9099L27.6319 41.9119Z" fill="#211715"/>
<path d="M33.2205 35.731C32.4362 35.5663 32.2284 34.7722 32.2829 34.0664C32.2939 33.9167 32.3188 33.7683 32.3573 33.6232C32.3651 33.5944 32.3741 33.5658 32.3838 33.5375C32.3904 33.5178 32.3977 33.4987 32.405 33.4792C32.4228 33.4292 32.3745 33.5386 32.4162 33.4528C32.4947 33.2647 32.613 33.0959 32.763 32.9581C32.8402 32.8846 32.9284 32.8237 33.0245 32.7778C33.1452 32.7213 33.2745 32.6854 33.407 32.6715C33.7403 32.6353 34.0756 32.7206 34.3511 32.9118C34.8353 33.2896 34.9046 34.0337 34.7654 34.5875C34.5844 35.3078 34.0003 35.8684 33.2203 35.7313C33.1352 35.7103 33.0453 35.7228 32.9691 35.766C32.893 35.8093 32.8363 35.8801 32.8108 35.964C32.7881 36.0491 32.7997 36.1397 32.8432 36.2163C32.8867 36.2929 32.9585 36.3493 33.0432 36.3734C33.5158 36.4735 34.0086 36.3967 34.4283 36.1577C34.8105 35.9171 35.1073 35.5623 35.2767 35.1436C35.6188 34.3378 35.5751 33.3111 35.0003 32.6204C34.4467 31.9554 33.3276 31.8066 32.5974 32.254C32.3448 32.4171 32.1302 32.6327 31.9683 32.8861C31.8063 33.1396 31.7009 33.4249 31.659 33.7227C31.5589 34.2385 31.5997 34.7718 31.7769 35.2665C31.8788 35.542 32.0481 35.7876 32.2693 35.981C32.4905 36.1743 32.7566 36.3093 33.0432 36.3734C33.4616 36.461 33.6403 35.8193 33.2205 35.731Z" fill="#211715"/>
<path d="M33.4155 34.7783C33.357 34.7675 33.3017 34.7441 33.2532 34.7098C33.0407 34.5579 33.0218 34.252 33.0777 34.0162C33.0925 33.9501 33.1211 33.8878 33.1615 33.8335C33.2019 33.7791 33.2534 33.7339 33.3124 33.7007C33.3715 33.6675 33.4369 33.647 33.5043 33.6408C33.5718 33.6345 33.6398 33.6424 33.704 33.6642C33.9866 33.7416 34.0723 34.0559 34.0231 34.3161C33.9692 34.5961 33.7508 34.8419 33.4155 34.7783Z" fill="#211715"/>
<path d="M22.5745 22.3855C21.6579 22.7339 20.9913 23.6113 20.5784 24.4674C20.3076 25.0492 20.1176 25.6653 20.0137 26.2985C19.8902 26.9782 19.7477 27.6528 19.6157 28.33C19.5474 28.68 19.5186 29.067 19.3908 29.3991C19.2837 29.6765 19.1894 29.9598 19.1051 30.2453C18.9283 30.8505 18.7884 31.4658 18.686 32.0879C18.5121 33.1232 18.384 34.1997 18.4598 35.2506C18.5569 36.6017 18.8512 38.0594 19.5834 39.2192C19.8116 39.5805 20.3879 39.2469 20.1582 38.8831C19.5501 37.9204 19.2769 36.7303 19.1572 35.6093C19.0708 34.6369 19.1055 33.6574 19.2606 32.6935C19.3448 32.1001 19.4606 31.5116 19.6074 30.9305C19.6801 30.6451 19.7612 30.3618 19.853 30.0816C19.9654 29.7896 20.0576 29.4902 20.1289 29.1856C20.252 28.5121 20.3913 27.8417 20.5233 27.17C20.6452 26.5501 20.7299 25.9206 20.9395 25.3221C21.1261 24.7733 21.4095 24.2625 21.7762 23.8136C21.9316 23.6257 22.1051 23.4535 22.2942 23.2994C22.3718 23.2404 22.4526 23.1859 22.5364 23.136C22.578 23.1113 22.621 23.0879 22.6646 23.0666C22.6831 23.0574 22.7019 23.0485 22.7207 23.0399C22.7862 23.0099 22.6804 23.0549 22.7518 23.0278C22.8356 23.0022 22.9064 22.9455 22.9496 22.8694C22.9929 22.7932 23.0053 22.7034 22.9843 22.6183C22.9603 22.5335 22.9039 22.4616 22.8272 22.418C22.7506 22.3745 22.6599 22.3629 22.5748 22.3857L22.5745 22.3855Z" fill="#211715"/>
<path d="M21.4541 38.4153C20.9148 37.5026 20.69 36.3849 20.522 35.3497C20.5137 35.2989 20.5057 35.248 20.498 35.1971C20.4964 35.1864 20.4773 35.0507 20.4852 35.113C20.4713 35.0082 20.4647 34.9025 20.4608 34.7968C20.4523 34.5661 20.4593 34.335 20.4726 34.1047C20.5024 33.587 20.565 33.0712 20.6445 32.5591C20.7192 32.0773 20.8043 31.5953 20.9195 31.1213L20.311 31.2008C20.6704 31.8486 20.9385 32.5595 21.2332 33.2381C21.6052 34.095 22.0393 34.9468 22.3061 35.8428C22.46 36.3594 22.546 36.9 22.3826 37.4242C22.2454 37.8644 22.0386 38.0623 21.6549 38.2594C21.4331 38.3851 21.1901 38.4691 20.938 38.5072C20.6097 38.5236 20.2863 38.5939 19.9808 38.7152C19.4379 38.9733 19.2807 39.6159 19.4634 40.1568C19.6461 40.6977 20.1546 41.1335 20.7508 40.9945C21.0613 40.9222 21.3093 40.6947 21.5887 40.5539C21.8715 40.4115 22.1666 40.2945 22.4519 40.1571C22.9719 39.9067 23.4875 39.6022 23.8522 39.1444C24.2563 38.6391 24.5243 38.0387 24.6305 37.4003C24.7276 36.7663 24.6166 36.1241 24.4602 35.5073C24.3015 34.9118 24.0948 34.3301 23.8422 33.768C23.3616 32.6647 22.7574 31.6212 22.255 30.5281C22.1364 30.2704 22.0244 30.0099 21.9236 29.7445C21.8798 29.6463 21.8428 29.5452 21.8126 29.442C21.8033 29.3505 21.802 29.2583 21.8088 29.1666C21.8177 28.723 21.8525 28.2802 21.913 27.8406C22.0345 26.8288 22.2585 25.832 22.5816 24.8656C22.6475 24.6705 22.7232 24.4789 22.8084 24.2915C22.8505 24.2147 22.8616 24.1247 22.8393 24.04C22.8171 23.9553 22.7633 23.8823 22.689 23.836C22.6126 23.7922 22.522 23.7801 22.4368 23.8025C22.3516 23.8248 22.2786 23.8798 22.2335 23.9554C21.8201 24.8485 21.5865 25.823 21.4099 26.7872C21.3185 27.2866 21.2454 27.7892 21.1956 28.294C21.1486 28.6797 21.1325 29.0685 21.1474 29.4568C21.1642 29.7259 21.3103 30.0049 21.4129 30.2525C21.5303 30.5353 21.6547 30.8151 21.7862 31.0919C22.0375 31.6208 22.3091 32.1396 22.5746 32.6615C23.1032 33.7005 23.6149 34.761 23.8707 35.9051C23.9992 36.4791 24.0668 37.049 23.9007 37.6227C23.7503 38.1867 23.4316 38.6914 22.987 39.0695C22.5477 39.4206 22.0074 39.6316 21.5001 39.8617C21.3638 39.9235 21.2276 39.9866 21.0978 40.0615C20.9647 40.1375 20.8437 40.2367 20.706 40.3044C20.6267 40.3493 20.5334 40.3628 20.4446 40.3421C20.3558 40.3214 20.278 40.2681 20.2266 40.1927C20.1027 40.0375 20.0422 39.841 20.0575 39.643C20.0747 39.4174 20.2223 39.3115 20.4343 39.251C20.7117 39.1719 21.0043 39.1798 21.2853 39.1215C21.5498 39.0529 21.8034 38.9478 22.0388 38.8093C22.4253 38.6225 22.7331 38.3047 22.9075 37.9125C23.1346 37.3719 23.1938 36.7754 23.0774 36.2007C22.9017 35.2013 22.4005 34.2741 22.0024 33.3495C21.6868 32.6167 21.3727 31.8819 21.0331 31.1599C20.9863 31.0603 20.9398 30.9601 20.8864 30.8638C20.8523 30.8087 20.8031 30.7645 20.7445 30.7367C20.686 30.7088 20.6207 30.6985 20.5564 30.7069C20.4921 30.7153 20.4317 30.7421 20.3822 30.784C20.3328 30.8259 20.2966 30.8813 20.2778 30.9433C20.0437 31.9215 19.8903 32.9172 19.8192 33.9205C19.7772 34.3923 19.7878 34.8673 19.851 35.3368C19.9293 35.8686 20.0366 36.3957 20.1725 36.9158C20.323 37.5569 20.5611 38.1743 20.88 38.7505C21.0978 39.1191 21.6736 38.7845 21.4548 38.4144L21.4541 38.4153Z" fill="#211715"/>
<path d="M18.8759 35.5949C19.2881 35.5702 19.6993 35.5344 20.1095 35.4875C20.1973 35.4848 20.2811 35.4503 20.3453 35.3904C20.4072 35.3275 20.4421 35.2429 20.4424 35.1546C20.4351 34.9912 20.2948 34.8006 20.1095 34.8217C19.6994 34.8685 19.2882 34.9043 18.8759 34.929C18.7876 34.929 18.7029 34.9641 18.6405 35.0266C18.578 35.089 18.543 35.1737 18.543 35.262C18.543 35.3503 18.578 35.4349 18.6405 35.4974C18.7029 35.5598 18.7876 35.5949 18.8759 35.5949Z" fill="#211715"/>
<path d="M22.5007 35.0628C22.5179 35.0553 22.5351 35.0481 22.5523 35.0407L22.4727 35.0743C22.7773 34.9467 23.0922 34.845 23.4139 34.7704C23.4986 34.7463 23.5705 34.6898 23.614 34.6132C23.6575 34.5366 23.6691 34.446 23.6464 34.3609C23.6213 34.2767 23.5647 34.2056 23.4884 34.1622C23.4121 34.1189 23.322 34.1068 23.2369 34.1284C22.8694 34.2158 22.5106 34.3361 22.1646 34.4878C22.0897 34.5316 22.0349 34.603 22.012 34.6867C22.0004 34.7289 21.9971 34.7729 22.0025 34.8163C22.0079 34.8597 22.0218 34.9017 22.0434 34.9397C22.065 34.9777 22.0939 35.0112 22.1284 35.038C22.1629 35.0649 22.2023 35.0847 22.2445 35.0963L22.333 35.1081C22.3921 35.1083 22.4501 35.0926 22.501 35.0628H22.5007Z" fill="#211715"/>
<path d="M34.6903 32.5326C34.9677 30.9895 35.1562 29.4138 35.0106 27.8457C34.8898 26.5437 34.6476 25.199 33.9903 24.0531C33.5732 23.3259 33.0031 22.6405 32.2127 22.3136C32.1275 22.2906 32.0368 22.3021 31.9601 22.3457C31.8835 22.3892 31.8271 22.4612 31.8032 22.546C31.7819 22.6311 31.7942 22.7211 31.8375 22.7973C31.8807 22.8736 31.9517 22.9302 32.0357 22.9555C32.6113 23.1937 33.0508 23.7762 33.3637 24.3011C33.6987 24.8696 33.9368 25.4897 34.0686 26.1362C34.3238 27.2767 34.4291 28.4457 34.3816 29.6134C34.3313 30.534 34.2201 31.4502 34.0487 32.356C34.0277 32.441 34.0401 32.5309 34.0833 32.6071C34.1266 32.6833 34.1974 32.74 34.2812 32.7655C34.3663 32.7882 34.4569 32.7765 34.5335 32.733C34.6101 32.6896 34.6666 32.6177 34.6907 32.533L34.6903 32.5326Z" fill="#211715"/>
<path d="M20.7074 39.0821C20.8276 39.3738 20.9103 39.6796 20.9534 39.9922L20.9415 39.9037C20.9541 39.9981 20.9633 40.0929 20.9693 40.188C20.9693 40.2763 21.0043 40.361 21.0668 40.4235C21.1292 40.4859 21.2139 40.521 21.3022 40.521C21.3905 40.521 21.4752 40.4859 21.5376 40.4235C21.6 40.361 21.6351 40.2763 21.6351 40.188C21.6118 39.7477 21.5154 39.3143 21.3499 38.9056C21.324 38.8234 21.27 38.753 21.1973 38.7067C21.1596 38.6846 21.1178 38.6702 21.0745 38.6642C21.0312 38.6583 20.9871 38.6609 20.9448 38.672C20.9025 38.6831 20.8628 38.7024 20.8279 38.7289C20.7931 38.7553 20.7638 38.7884 20.7418 38.8261C20.7187 38.8642 20.7038 38.9067 20.698 38.9508C20.6923 38.995 20.6957 39.0399 20.7082 39.0826L20.7074 39.0821Z" fill="#211715"/>
<path d="M22.8003 40.1051C22.825 40.1155 22.8469 40.1287 22.8705 40.1413C22.9204 40.1678 22.8428 40.1089 22.8788 40.148C22.8981 40.1686 22.9184 40.1879 22.9368 40.2094C22.8952 40.1603 22.936 40.2108 22.9443 40.224C22.9601 40.2491 22.973 40.2753 22.987 40.3015C23.0161 40.357 22.9774 40.2623 22.9928 40.3171C23.0008 40.3448 23.0105 40.3726 23.017 40.4011C23.0245 40.4343 23.0231 40.4576 23.0207 40.4111C23.0221 40.438 23.022 40.4651 23.0231 40.4921C23.0256 40.5515 23.039 40.4433 23.0231 40.4944C22.9988 40.5736 23.0522 40.4612 23.0171 40.5199C23.0041 40.5419 22.9922 40.5641 22.9779 40.5855C23.0078 40.541 22.948 40.6167 22.939 40.6253C22.93 40.6339 22.8795 40.6761 22.917 40.6475C22.8644 40.686 22.808 40.719 22.7487 40.7458C22.7309 40.7539 22.7328 40.7533 22.7545 40.7442C22.7383 40.7507 22.7218 40.7569 22.7053 40.7628C22.6764 40.7732 22.6473 40.7823 22.6179 40.7905C22.5856 40.7998 22.553 40.8083 22.5208 40.8156C22.5005 40.8202 22.4801 40.8242 22.4598 40.8277C22.4772 40.8262 22.4761 40.8263 22.4566 40.8277C22.4207 40.8307 22.3846 40.8317 22.3486 40.8307C22.3123 40.8278 22.307 40.8275 22.3348 40.8307C22.3217 40.8282 22.3087 40.8253 22.2959 40.8217C22.2832 40.8181 22.2038 40.7879 22.25 40.809C22.2218 40.7958 22.1944 40.7807 22.1682 40.7639C22.1568 40.7568 22.1456 40.75 22.1346 40.7417C22.1546 40.7585 22.1521 40.7565 22.1268 40.7356C22.1016 40.7146 22.0799 40.694 22.0575 40.6709C22.0187 40.6329 21.9849 40.5902 21.9568 40.5437C21.8779 40.4158 21.8083 40.2824 21.7487 40.1445C21.7113 40.0812 21.6505 40.0352 21.5794 40.0166C21.5083 39.998 21.4327 40.0082 21.3692 40.045C21.3071 40.0835 21.2622 40.1444 21.2437 40.215C21.2252 40.2856 21.2344 40.3606 21.2696 40.4246C21.3724 40.6945 21.5346 40.9378 21.7441 41.1366C21.8579 41.2352 21.9909 41.3091 22.1347 41.3534C22.2996 41.3947 22.4719 41.396 22.6373 41.3572C22.9097 41.3116 23.1615 41.1835 23.3586 40.9901C23.451 40.894 23.5173 40.7759 23.5513 40.647C23.5853 40.518 23.5858 40.3826 23.5528 40.2534C23.5263 40.1201 23.4701 39.9945 23.3884 39.8859C23.3068 39.7772 23.2018 39.6883 23.0812 39.6257C23.0172 39.5906 22.9422 39.5814 22.8716 39.5999C22.8011 39.6184 22.7402 39.6632 22.7017 39.7252C22.6653 39.7889 22.6553 39.8643 22.6739 39.9353C22.6925 40.0063 22.7382 40.0671 22.8011 40.1048L22.8003 40.1051Z" fill="#211715"/>
<path d="M33.9989 15.9919C33.9813 16.2969 33.9245 16.5983 33.8298 16.8887C33.7967 16.9989 33.7604 17.108 33.7236 17.2169C33.7107 17.2545 33.6983 17.2924 33.6851 17.3299C33.6762 17.355 33.635 17.4461 33.6781 17.35C33.5444 17.6409 33.3907 17.9222 33.218 18.1918C32.7141 19.0177 32.0794 19.7563 31.3387 20.3787C30.9295 20.726 30.4542 20.9866 29.9415 21.145C29.5302 21.2625 29.705 21.9052 30.1185 21.787C31.1812 21.4835 32.0664 20.7189 32.7774 19.8986C33.363 19.2497 33.8528 18.5205 34.2322 17.7331C34.4864 17.1857 34.6332 16.5946 34.6647 15.9919C34.6786 15.5633 34.0127 15.5638 33.9989 15.9919Z" fill="#211715"/>
<path d="M19.823 16.0014C20.2195 18.1263 21.3536 20.1667 23.2545 21.2929C23.7613 21.5983 24.322 21.8036 24.9061 21.8974C24.9911 21.9181 25.0809 21.9056 25.157 21.8624C25.2331 21.8192 25.2898 21.7486 25.3156 21.6649C25.3384 21.5798 25.3268 21.4892 25.2833 21.4125C25.2398 21.3359 25.1679 21.2795 25.0831 21.2555C23.0549 20.9472 21.5024 19.1096 20.8459 17.2639C20.6813 16.7948 20.554 16.3135 20.4649 15.8244C20.4408 15.7397 20.3844 15.6678 20.3078 15.6244C20.2312 15.5809 20.1405 15.5692 20.0554 15.5919C19.9713 15.617 19.9002 15.6736 19.8568 15.7499C19.8135 15.8262 19.8014 15.9163 19.823 16.0014Z" fill="#211715"/>
<path d="M35.0004 12.395C35.1532 12.27 35.3487 12.2093 35.5454 12.2258C35.7421 12.2422 35.9248 12.3345 36.0547 12.4832C36.2046 12.673 36.2186 12.9444 36.2286 13.1757C36.2422 13.4435 36.2282 13.712 36.187 13.977C36.1041 14.5114 35.9155 15.0238 35.6321 15.4843C35.4188 15.8235 35.0656 16.2823 34.6155 16.1585C34.2018 16.0446 34.0252 16.6868 34.4385 16.8005C35.5964 17.1195 36.3557 15.751 36.658 14.8436C36.8403 14.2967 36.9198 13.7208 36.8925 13.145C36.8648 12.5881 36.7162 12.0582 36.2091 11.7555C35.9466 11.6043 35.6432 11.5392 35.3418 11.5695C35.0404 11.5998 34.756 11.7238 34.5288 11.9242C34.467 11.987 34.4324 12.0715 34.4324 12.1596C34.4324 12.2476 34.467 12.3322 34.5288 12.395C34.592 12.4558 34.6764 12.4898 34.7642 12.4898C34.852 12.4898 34.9363 12.4558 34.9996 12.395H35.0004Z" fill="#211715"/>
<path d="M20.0663 11.924C19.8591 11.7417 19.6041 11.6223 19.3313 11.5799C19.0585 11.5375 18.7793 11.574 18.5266 11.6849C17.9943 11.9207 17.7708 12.4114 17.716 12.9636C17.6051 14.0872 17.9421 15.3434 18.6764 16.2119C19.0694 16.6769 19.6363 17.0504 20.265 16.9041C20.6821 16.807 20.5055 16.1649 20.088 16.262C19.6506 16.3638 19.225 15.8785 19.01 15.5562C18.711 15.096 18.51 14.5791 18.4193 14.0378C18.374 13.7735 18.3558 13.5052 18.3649 13.2371C18.3715 13.0044 18.377 12.7239 18.5132 12.5244C18.5744 12.443 18.6514 12.3748 18.7396 12.324C18.8279 12.2731 18.9255 12.2407 19.0266 12.2286C19.1277 12.2165 19.2302 12.225 19.3279 12.2535C19.4256 12.2821 19.5166 12.3302 19.5952 12.3949C19.6587 12.4553 19.743 12.4889 19.8306 12.4889C19.9183 12.4889 20.0025 12.4553 20.066 12.3949C20.1278 12.332 20.1624 12.2475 20.1624 12.1595C20.1624 12.0714 20.1278 11.9869 20.066 11.924H20.0663Z" fill="#211715"/>
<path d="M32.0171 22.915C31.8668 23.9186 31.6624 24.9134 31.405 25.8949C31.2005 26.6836 30.9364 27.4469 30.6599 28.2115C30.0449 29.9144 29.4427 31.628 28.7352 33.2952C27.8474 35.387 26.7309 37.3527 25.612 39.3263C25.3459 39.7877 25.1041 40.2626 24.8876 40.7492C24.7024 41.1339 24.5512 41.534 24.4357 41.945C24.272 42.6273 24.2487 43.3509 24.2276 44.0493C24.1771 45.7181 24.2537 47.3873 24.294 49.0553C24.2976 49.198 24.3004 49.3408 24.3025 49.4836C24.3085 49.9116 24.9743 49.9136 24.9684 49.4836C24.9464 47.8915 24.8635 46.3013 24.8804 44.7085C24.8847 44.2957 24.8943 43.8826 24.9177 43.4703C24.9278 43.2871 24.9405 43.104 24.9574 42.9211C24.9647 42.8403 24.973 42.7595 24.9824 42.6786C24.9875 42.6349 24.9928 42.5913 24.9986 42.5476C24.9903 42.6093 25.0066 42.495 25.009 42.4803C25.1326 41.682 25.5075 40.9135 25.8829 40.2061C26.4062 39.2192 26.9909 38.2641 27.5277 37.2843C28.0609 36.3114 28.5624 35.3218 29.0153 34.3087C29.8053 32.5419 30.46 30.7159 31.1185 28.8975C31.366 28.2139 31.6286 27.5336 31.8356 26.8364C32.1336 25.8188 32.3735 24.7851 32.5543 23.7403C32.5924 23.5244 32.6275 23.3081 32.6595 23.0913C32.6801 23.0063 32.6676 22.9166 32.6244 22.8405C32.5812 22.7645 32.5106 22.7077 32.4271 22.6818C32.3419 22.659 32.2513 22.6706 32.1746 22.7141C32.098 22.7576 32.0412 22.8302 32.0171 22.915Z" fill="#211715"/>
<path d="M22.2383 22.9348C22.4097 24.9907 22.8171 27.0201 23.4525 28.9829C24.0628 30.8282 24.7734 32.6389 25.5812 34.4067C26.0096 35.3729 26.4485 36.3349 26.8744 37.3016C26.9193 37.3774 26.9924 37.4324 27.0776 37.4548C27.1629 37.4771 27.2535 37.465 27.3299 37.4211C27.4045 37.375 27.4585 37.302 27.4807 37.2172C27.5029 37.1324 27.4917 37.0423 27.4493 36.9655C25.9223 33.4976 24.2629 30.0701 23.4251 26.3522C23.1699 25.2272 22.9957 24.0852 22.9041 22.9352C22.902 22.8476 22.8663 22.7641 22.8043 22.7021C22.7423 22.6402 22.6588 22.6044 22.5712 22.6023C22.4831 22.603 22.3988 22.6383 22.3366 22.7006C22.2743 22.7629 22.239 22.8471 22.2383 22.9352V22.9348Z" fill="#211715"/>
<path d="M30.1635 26.9998C30.8461 26.1991 31.4438 25.3298 31.9471 24.4058C32.0686 24.1786 32.1847 23.9488 32.2954 23.7162C32.3638 23.5957 32.4217 23.4696 32.4686 23.3392C32.5139 23.174 32.406 23.0251 32.3322 22.8858C32.1079 22.4471 31.8111 22.0495 31.4542 21.7097C31.4177 21.6748 31.3738 21.6486 31.3258 21.6328C31.2778 21.6171 31.2269 21.6123 31.1768 21.6188C31.1267 21.6252 31.0786 21.6428 31.0362 21.6702C30.9937 21.6976 30.958 21.7341 30.9314 21.7771C30.3731 22.5174 29.4168 23.1088 28.5649 23.5342C28.2875 23.6729 27.9978 23.7786 27.72 23.913C27.4298 24.0534 27.2601 24.3266 27.4654 24.6254C27.6817 24.9404 28.0016 25.1941 28.2592 25.4744C28.7315 25.9877 29.2424 26.4668 29.6927 27.0003C29.7555 27.0621 29.84 27.0967 29.9281 27.0967C30.0162 27.0967 30.1007 27.0621 30.1635 27.0003C30.2244 26.937 30.2585 26.8524 30.2585 26.7645C30.2585 26.6766 30.2244 26.5921 30.1635 26.5287C29.7401 26.0272 29.261 25.5764 28.8151 25.0955C28.6236 24.8886 28.4316 24.6832 28.2313 24.4851C28.1773 24.4316 28.1242 24.3772 28.0701 24.3236C28.0486 24.3024 28.0007 24.2322 28.069 24.3297C28.0608 24.318 28.0163 24.2418 28.0214 24.2643V24.4413L28.0311 24.403L27.9455 24.5499C27.9117 24.5896 27.9802 24.5263 28.0056 24.5129C28.031 24.4994 28.0572 24.4862 28.0836 24.4744C28.1955 24.4238 28.3113 24.3805 28.4241 24.3314C28.6222 24.2451 28.8174 24.1526 29.0096 24.054C29.3631 23.873 29.7051 23.6705 30.0336 23.4475C30.5941 23.0861 31.0916 22.6353 31.5063 22.113L30.9834 22.1803C31.3463 22.5381 31.6431 22.9573 31.86 23.4185V23.0825C31.2949 24.3232 30.566 25.4824 29.6927 26.5292C29.6322 26.5928 29.5984 26.6773 29.5984 26.7651C29.5984 26.8529 29.6322 26.9373 29.6927 27.0009C29.7556 27.0625 29.8402 27.0969 29.9283 27.0966C30.0164 27.0964 30.1008 27.0617 30.1635 26.9998Z" fill="#211715"/>
<path d="M25.085 26.529C24.2116 25.4823 23.4827 24.3232 22.9175 23.0827V23.4186C23.1345 22.9575 23.4313 22.5383 23.7942 22.1805L23.2712 22.1132C23.6859 22.6355 24.1834 23.0863 24.7439 23.4476C25.0725 23.6705 25.4145 23.8731 25.7679 24.0541C25.9509 24.1482 26.1365 24.2365 26.3248 24.3192C26.4375 24.3687 26.5521 24.4137 26.6648 24.4628C26.7014 24.4787 26.7367 24.4943 26.7721 24.5131C26.7947 24.5251 26.8722 24.5972 26.8321 24.5502L26.7465 24.4033L26.7562 24.4415V24.2645C26.7614 24.2421 26.7168 24.3182 26.7087 24.33C26.778 24.2329 26.7291 24.3023 26.7074 24.3239C26.6535 24.3775 26.6003 24.4318 26.5462 24.4854C26.3461 24.6839 26.1541 24.8893 25.9624 25.0957C25.5167 25.5767 25.0375 26.0275 24.6142 26.529C24.5536 26.5926 24.5198 26.677 24.5198 26.7648C24.5198 26.8526 24.5536 26.937 24.6142 27.0006C24.677 27.0623 24.7615 27.0969 24.8496 27.0969C24.9376 27.0969 25.0222 27.0623 25.085 27.0006C25.481 26.5313 25.9263 26.1067 26.3466 25.6599C26.5416 25.4527 26.732 25.2415 26.933 25.0401C27.0301 24.943 27.1354 24.8497 27.2243 24.7438C27.4145 24.5159 27.4995 24.2125 27.22 24.0086C26.9911 23.8422 26.6906 23.7614 26.4347 23.6414C25.9058 23.3951 25.4002 23.1015 24.9242 22.764C24.5204 22.4874 24.1576 22.1551 23.8466 21.7771C23.8201 21.7341 23.7843 21.6976 23.7419 21.6702C23.6994 21.6428 23.6514 21.6252 23.6013 21.6188C23.5512 21.6123 23.5003 21.6171 23.4523 21.6328C23.4043 21.6486 23.3604 21.6748 23.3238 21.7096C22.967 22.0494 22.6702 22.4471 22.4459 22.8858C22.3785 23.013 22.2833 23.1452 22.3036 23.2949C22.3395 23.4339 22.3956 23.5669 22.47 23.6897C22.5851 23.931 22.7053 24.1697 22.8307 24.4058C23.334 25.3298 23.9317 26.1991 24.6143 26.9998C24.6771 27.0615 24.7616 27.0961 24.8497 27.0961C24.9378 27.0961 25.0223 27.0615 25.0851 26.9998C25.1458 26.9364 25.1796 26.8521 25.1796 26.7643C25.1796 26.6766 25.1457 26.5923 25.085 26.529Z" fill="#211715"/>
<path d="M31.9496 24.1442C32.0021 24.1996 31.9634 24.1518 31.9937 24.1955C32.0189 24.2318 32.0426 24.2693 32.0657 24.3071C32.1273 24.4088 32.1821 24.5152 32.2341 24.6215C32.3289 24.8148 32.4111 25.014 32.4802 25.218C32.9618 26.7997 33.1735 28.4513 33.1063 30.1035C33.0698 30.8033 32.987 31.4998 32.8834 32.1925C32.8627 32.2776 32.8753 32.3673 32.9185 32.4434C32.9617 32.5195 33.0323 32.5763 33.1159 32.6022C33.201 32.625 33.2917 32.6133 33.3683 32.5698C33.445 32.5263 33.5014 32.4543 33.5254 32.3695C33.7104 31.133 33.8425 29.8843 33.7719 28.6328C33.7054 27.4382 33.4949 26.2561 33.1452 25.112C33.0589 24.8437 32.9534 24.582 32.8297 24.3288C32.7283 24.0904 32.5903 23.8694 32.4205 23.6738C32.1246 23.3626 31.6542 23.834 31.9489 24.1446L31.9496 24.1442Z" fill="#211715"/>
<path d="M5.76085 24.5512C5.4185 23.2376 4.6432 20.5472 4.34593 20.1694C4.12121 19.8827 3.85335 19.6609 3.3591 19.8712C2.93421 20.0528 3.00329 20.5426 3.08402 20.9474C3.16642 21.3682 3.70922 23.5648 4.02411 24.701C3.91399 24.5481 3.75533 24.4369 3.57397 24.3857C3.39261 24.3344 3.19923 24.3461 3.02534 24.4188C2.69242 24.5713 2.56355 24.855 2.60101 25.0602C2.63297 25.2186 2.68455 25.3723 2.75457 25.518C2.54441 25.3099 2.16446 25.3111 1.89313 25.4564C1.60529 25.6105 1.31524 26.023 1.45714 26.3207C1.51915 26.451 1.59933 26.6018 1.68825 26.7534L1.58795 26.6708C1.22229 26.3702 0.587523 26.5553 0.484318 26.9562C0.40511 27.2639 0.538834 27.6267 0.71015 27.9081C0.734148 27.9476 0.760088 27.9903 0.787693 28.0351L0.812107 28.1104C1.04668 28.8366 1.5032 29.9462 2.18721 30.7371C2.50474 31.1037 2.87123 31.4675 3.15921 31.8607C3.44718 32.2538 3.51876 32.6908 3.65928 33.1613L3.71935 33.3491C4.40364 33.0968 6.48315 32.3226 7.66627 31.7726L7.63367 31.6702C7.52423 31.1646 7.4034 30.5072 7.47498 30.0788C7.60321 29.5958 7.76469 29.1223 7.95827 28.6616C8.11644 28.2874 8.18567 27.8816 8.16052 27.4761C8.10989 27.0153 7.99046 26.3565 7.64727 25.8761C7.57031 25.7723 7.47334 25.6849 7.36207 25.6191C6.95146 25.3674 6.44265 25.3555 5.96005 25.3842L5.91719 25.1911C5.89444 25.0788 5.83895 24.8509 5.76085 24.5512Z" fill="#E6F4F3"/>
<path d="M4.33995 24.6003C4.09344 23.7028 3.86706 22.7994 3.64636 21.8953C3.56854 21.5762 3.48919 21.2572 3.4208 20.9365C3.38107 20.7776 3.35944 20.6147 3.3563 20.4509C3.35907 20.2706 3.40693 20.1807 3.61584 20.1352C3.8131 20.0921 3.91131 20.1786 4.04129 20.3219C4.04878 20.3301 4.1044 20.4 4.07375 20.3588C4.05349 20.3311 4.06945 20.3527 4.07375 20.3598C4.08165 20.3719 4.08984 20.3839 4.09719 20.3966C4.11841 20.4333 4.13797 20.4708 4.15656 20.5089C4.16766 20.532 4.1782 20.5554 4.18888 20.5783C4.19415 20.5898 4.22703 20.6658 4.20622 20.6171C4.18541 20.5684 4.22009 20.6511 4.22509 20.6633C4.23924 20.6986 4.25311 20.7339 4.2667 20.7694C4.3215 20.9115 4.37268 21.0548 4.42234 21.1986C4.67592 21.9338 4.89551 22.6804 5.10761 23.4282C5.28128 24.04 5.4698 24.656 5.59451 25.2801C5.61798 25.3653 5.67431 25.4376 5.75112 25.4812C5.82793 25.5248 5.91892 25.5361 6.00407 25.5127C6.08922 25.4892 6.16156 25.4329 6.20517 25.3561C6.24879 25.2792 6.2601 25.1883 6.23663 25.1031C6.11927 24.5161 5.9431 23.9365 5.78066 23.3608C5.55525 22.561 5.32193 21.7613 5.04865 20.9763C4.83198 20.354 4.56314 19.5034 3.76926 19.4573C3.61226 19.4479 3.45505 19.4722 3.30826 19.5287C3.16147 19.5852 3.02851 19.6725 2.91837 19.7848C2.74837 19.9965 2.66716 20.2659 2.69184 20.5363C2.72449 20.8914 2.7895 21.2429 2.88605 21.5862C3.13921 22.6543 3.40582 23.7193 3.69657 24.7774C3.80991 25.1901 4.45245 25.0149 4.33856 24.6004L4.33995 24.6003Z" fill="#211715"/>
<path d="M0.490701 28.1989C0.757708 29.0834 1.16894 29.9177 1.70781 30.6681C2.02977 31.0945 2.41651 31.4646 2.75388 31.8781C2.90865 32.0598 3.03089 32.2668 3.11523 32.49C3.20429 32.7387 3.26352 32.997 3.33788 33.2502C3.45828 33.6605 4.10082 33.486 3.97986 33.0732C3.83379 32.5757 3.72559 32.0683 3.40987 31.6444C3.08083 31.2023 2.68036 30.8232 2.33356 30.3959C1.77578 29.7096 1.40416 28.8574 1.13269 28.0221C1.00076 27.6163 0.357532 27.79 0.490701 28.1991V28.1989Z" fill="#211715"/>
<path d="M6.31722 27.8821C6.27253 27.6291 6.21296 27.379 6.13883 27.133C6.08216 26.9024 5.93688 26.7033 5.73447 26.579C5.52731 26.4771 5.30188 26.4175 5.0714 26.4038C5.00524 26.3944 4.94143 26.3772 4.87609 26.3654C4.91479 26.3723 4.85611 26.334 4.87997 26.3711C4.89995 26.4049 4.89144 26.3917 4.85445 26.3314C4.83846 26.3064 4.82503 26.2799 4.81436 26.2522C4.78633 26.1779 4.78762 26.0957 4.81797 26.0223C4.83597 25.976 4.85816 25.9314 4.88427 25.8892C4.9675 25.7479 4.91202 25.8574 4.89995 25.8639C5.07543 25.7929 5.26273 25.7556 5.45204 25.7539C5.89594 25.714 6.37673 25.6526 6.81564 25.7564C7.01381 25.7913 7.19681 25.8852 7.34068 26.0259C7.47491 26.1937 7.57521 26.386 7.63601 26.592C7.76005 26.9323 7.82667 27.2907 7.83313 27.6528C7.82522 28.2719 7.5335 28.7856 7.33874 29.3647C7.28852 29.5141 7.23914 29.6641 7.19503 29.8154C7.18185 29.8608 7.16729 29.9065 7.15827 29.9529C7.1505 29.9898 7.14703 30.0264 7.14204 30.0639C7.15272 29.984 7.13302 30.1252 7.12817 30.1698C7.07767 30.697 7.20072 31.2457 7.31086 31.758C7.40102 32.1768 8.04301 31.9995 7.95298 31.581C7.85435 31.1232 7.7449 30.6377 7.79429 30.1661C7.79706 30.1383 7.8015 30.102 7.80622 30.0745C7.81093 30.0471 7.77556 30.1578 7.79845 30.1353C7.80552 30.1281 7.80636 30.0992 7.80927 30.0894C7.82592 30.0339 7.84007 29.9791 7.85671 29.9243C7.90318 29.7717 7.95381 29.6191 8.00514 29.4676C8.05841 29.3112 8.11306 29.1553 8.1716 29.0009C8.18408 28.9681 8.19685 28.9357 8.20961 28.9038C8.22237 28.8719 8.23957 28.8375 8.21363 28.8925C8.24692 28.8221 8.28105 28.7524 8.31073 28.6803C8.46259 28.2978 8.5243 27.8855 8.49107 27.4754C8.45308 26.9953 8.3359 26.5248 8.14427 26.0829C8.04366 25.8408 7.88636 25.6264 7.68561 25.4578C7.48486 25.2892 7.24654 25.1712 6.9907 25.1139C6.48743 24.995 5.95947 25.042 5.4501 25.0876C5.18595 25.0982 4.92488 25.1484 4.67564 25.2365C4.55987 25.289 4.45681 25.3659 4.37354 25.462C4.29026 25.558 4.22874 25.671 4.19318 25.793C3.99232 26.3174 4.27641 26.9487 4.84738 27.039C5.02147 27.0667 5.36063 27.0473 5.46397 27.2193C5.50843 27.326 5.53928 27.4379 5.55581 27.5522C5.60539 27.7185 5.64463 27.8876 5.6733 28.0587C5.69724 28.1435 5.75365 28.2155 5.83031 28.259C5.90696 28.3025 5.99768 28.3141 6.08279 28.2912C6.16698 28.2662 6.23831 28.2098 6.28197 28.1336C6.32563 28.0574 6.33826 27.9674 6.31722 27.8821Z" fill="#211715"/>
<path d="M2.21233 28.1519C2.22801 28.2074 2.21705 28.0891 2.21552 28.1675C2.214 28.2481 2.23162 28.1346 2.21303 28.1912C2.20734 28.2088 2.16836 28.3047 2.20124 28.2396C2.18417 28.2735 2.16739 28.307 2.14728 28.3392C2.13701 28.3554 2.12605 28.3708 2.11537 28.3866C2.11801 28.3828 2.14839 28.3468 2.12411 28.3755C2.10335 28.4004 2.08136 28.4242 2.05822 28.4468C2.04532 28.4593 2.03186 28.4707 2.01855 28.4826C2.02853 28.4736 2.07403 28.4491 2.02493 28.4764C2.01466 28.4822 2.00412 28.4887 1.99413 28.4951C1.95252 28.5222 1.96764 28.5016 2.00232 28.4939C1.9847 28.4978 1.90341 28.5195 1.93629 28.5129C1.96916 28.5062 1.879 28.5162 1.86152 28.5163C1.84765 28.5163 1.72946 28.5083 1.79438 28.5163C1.75244 28.5104 1.71096 28.5016 1.67023 28.49C1.64983 28.4844 1.63 28.4776 1.60975 28.4713C1.60725 28.4713 1.55897 28.452 1.5913 28.4654C1.62639 28.4793 1.56855 28.4536 1.56092 28.4498C1.54704 28.4427 1.53428 28.4359 1.52124 28.4276C1.50418 28.4174 1.48767 28.4065 1.47144 28.395C1.48337 28.4034 1.51583 28.4357 1.47283 28.3937C1.44426 28.366 1.41512 28.3382 1.38807 28.3091C1.36103 28.28 1.33883 28.2528 1.31511 28.2238C1.28015 28.1812 1.33952 28.2572 1.30595 28.2121C1.29583 28.1983 1.28584 28.1844 1.27599 28.1714C1.22342 28.0984 1.1739 28.0232 1.12576 27.9473C1.0353 27.8117 0.954108 27.6701 0.882727 27.5235C0.880924 27.5197 0.8597 27.4654 0.874682 27.5047C0.868301 27.488 0.862197 27.4712 0.856371 27.4545C0.842499 27.4155 0.830292 27.3761 0.820027 27.336C0.814062 27.3134 0.809901 27.2905 0.804213 27.2679C0.802271 27.2601 0.793671 27.2027 0.799913 27.254C0.794364 27.2091 0.796723 27.1641 0.794503 27.119C0.794503 27.1097 0.799774 27.0527 0.792145 27.1086C0.794553 27.0923 0.797794 27.0762 0.801855 27.0602C0.807439 27.0441 0.812071 27.0276 0.815727 27.0108C0.818917 26.9788 0.808097 27.031 0.804075 27.0368C0.816837 27.0183 0.87163 26.9433 0.814478 27.007C0.835702 26.9834 0.857619 26.9615 0.879953 26.9391C0.896738 26.9223 0.923926 26.9172 0.869272 26.9466C0.883143 26.939 0.897015 26.9283 0.910887 26.92C0.924759 26.9117 0.940156 26.9046 0.954167 26.8961C1.00521 26.8649 0.918655 26.902 0.954167 26.8945C0.986765 26.8877 1.01853 26.8727 1.05127 26.8649C1.06778 26.861 1.08512 26.8591 1.10148 26.8546C1.1431 26.8433 1.02436 26.8565 1.10232 26.856C1.13686 26.856 1.17168 26.856 1.20552 26.856C1.22813 26.856 1.25921 26.8714 1.19387 26.8535C1.21038 26.858 1.22772 26.8601 1.24436 26.8642C1.26101 26.8684 1.27738 26.8745 1.29402 26.8781C1.35076 26.892 1.27225 26.8577 1.29846 26.8781C1.31566 26.892 1.41193 26.9508 1.35284 26.9042C1.41657 26.9641 1.50076 26.9975 1.58824 26.9975C1.67573 26.9975 1.75992 26.9641 1.82365 26.9042C1.88551 26.8414 1.92019 26.7569 1.92019 26.6688C1.92019 26.5807 1.88551 26.4961 1.82365 26.4334C1.65252 26.2957 1.44412 26.2124 1.22527 26.1942C1.00641 26.176 0.787115 26.2237 0.595582 26.3311C0.162506 26.5715 0.0605491 27.0575 0.178043 27.5115C0.244644 27.7414 0.344964 27.9602 0.47573 28.1607C0.594092 28.3607 0.727752 28.5513 0.875514 28.7307C1.02627 28.9074 1.22235 29.0397 1.44266 29.1133C1.66297 29.187 1.89919 29.1992 2.12591 29.1486C2.59284 29.0394 2.98763 28.4435 2.85446 27.9727C2.83098 27.8876 2.77466 27.8153 2.69786 27.7717C2.62107 27.7281 2.5301 27.7167 2.44496 27.7402C2.35983 27.7637 2.28751 27.82 2.24391 27.8968C2.20031 27.9736 2.189 28.0646 2.21247 28.1497L2.21233 28.1519Z" fill="#211715"/>
<path d="M3.0205 25.316C2.61378 24.8689 1.88968 24.9734 1.47769 25.3503C1.36341 25.4492 1.26993 25.5699 1.20268 25.7053C1.13543 25.8407 1.09575 25.9882 1.08595 26.139C1.08428 26.4273 1.26836 26.6992 1.40958 26.9396C1.6411 27.3332 1.9177 27.7117 2.18126 28.0852C2.29135 28.2586 2.42267 28.4175 2.57217 28.5582C2.79594 28.7328 3.07545 28.8203 3.35883 28.8045C4.07406 28.7738 4.4676 28.074 4.28824 27.4173C4.17519 27.0046 3.53265 27.1798 3.64626 27.5944C3.6728 27.6654 3.68115 27.7418 3.67054 27.8168C3.65992 27.8917 3.63069 27.9629 3.5855 28.0236C3.60714 27.9951 3.54555 28.0623 3.53598 28.0716C3.50906 28.0978 3.53598 28.0758 3.54166 28.0708C3.52973 28.0801 3.51669 28.0885 3.50393 28.0966C3.44807 28.1305 3.38286 28.1457 3.31777 28.14C3.24253 28.1402 3.16783 28.1272 3.09707 28.1016C3.07126 28.0873 3.04441 28.075 3.01676 28.0647C3.01162 28.0633 2.97403 28.0383 3.01814 28.068C3.06226 28.0977 3.00608 28.0558 2.99997 28.0496C2.90914 27.958 2.82772 27.8576 2.75694 27.7498C2.57272 27.4887 2.39239 27.2238 2.21136 26.9608C2.08137 26.7708 1.96212 26.5737 1.85417 26.3704C1.81463 26.3039 1.78058 26.2343 1.75235 26.1623C1.76081 26.1901 1.75235 26.1365 1.75235 26.1326C1.75936 26.0939 1.77227 26.0565 1.79063 26.0217C1.82772 25.9462 1.88001 25.8791 1.94422 25.8248C2.00844 25.7705 2.08319 25.73 2.16378 25.7059C2.22897 25.6797 2.30047 25.6735 2.36923 25.6879C2.43799 25.7023 2.50094 25.7368 2.55011 25.7869C2.83906 26.1046 3.3089 25.6327 3.02092 25.3161L3.0205 25.316Z" fill="#211715"/>
<path d="M4.7624 26.8485C4.77463 26.9229 4.76795 26.9992 4.74295 27.0703C4.71796 27.1414 4.67546 27.205 4.61938 27.2554C4.58213 27.2909 4.53556 27.3152 4.48508 27.3253C4.43459 27.3355 4.38227 27.3311 4.33418 27.3127C4.18909 27.2206 4.07258 27.0899 3.99779 26.9352C3.85352 26.6983 3.7051 26.4644 3.55542 26.231C3.311 25.8499 3.03481 25.4576 2.93119 25.0102C2.93119 25.0075 2.9151 24.9445 2.92634 24.9853C2.93757 25.0261 2.94284 24.9469 2.92758 24.9793C2.91094 25.0147 2.95352 24.8944 2.93632 24.9377C2.96249 24.8733 3.00708 24.8181 3.0645 24.779C3.13511 24.7267 3.21876 24.6949 3.30627 24.6871C3.39378 24.6792 3.48176 24.6956 3.56055 24.7345C3.74088 24.8192 3.86837 25.0197 3.98572 25.1737C4.12305 25.354 4.25664 25.5382 4.37649 25.7303C4.60287 26.0931 5.17925 25.7592 4.95147 25.3942C4.80126 25.1596 4.63921 24.9327 4.46596 24.7145C4.29201 24.4903 4.11806 24.2621 3.85408 24.1394C3.26536 23.8654 2.45373 24.1218 2.28727 24.7984C2.21721 25.0831 2.32999 25.3727 2.44346 25.6307C2.58061 25.9231 2.73986 26.2047 2.91982 26.4729C3.1014 26.7578 3.27798 27.0459 3.45929 27.331C3.61123 27.6052 3.84838 27.8225 4.13484 27.9499C4.29251 27.9989 4.4601 28.0067 4.62161 27.9724C4.78311 27.9381 4.93313 27.863 5.05731 27.7542C5.18585 27.6432 5.28644 27.5034 5.35093 27.3462C5.41542 27.1891 5.442 27.019 5.42852 26.8496C5.40688 26.4234 4.7409 26.4207 4.76268 26.8496L4.7624 26.8485Z" fill="#211715"/>
<path d="M4.33094 34.6142C4.15061 34.1638 4.01064 33.6957 3.81602 33.2514L3.6171 33.7405C4.81229 33.3011 6.00456 32.8505 7.17645 32.3516C7.51867 32.2059 7.85977 32.0562 8.19103 31.887L7.73562 31.7676C7.92663 32.156 8.09115 32.557 8.27662 32.948C8.32171 33.0237 8.39471 33.0786 8.47989 33.1009C8.56507 33.1233 8.65562 33.1113 8.73203 33.0675C8.80686 33.0216 8.86108 32.9486 8.88334 32.8637C8.90559 32.7788 8.89417 32.6886 8.85146 32.6119C8.66614 32.2209 8.50162 31.8199 8.31046 31.4315C8.26488 31.3564 8.19189 31.3019 8.10691 31.2796C8.02194 31.2573 7.93163 31.269 7.85505 31.312C6.62546 31.9401 5.30363 32.4055 4.01036 32.8877C3.8205 32.9585 3.63042 33.0287 3.4401 33.0986C3.39173 33.1133 3.34727 33.1387 3.30993 33.1728C3.2726 33.2069 3.24335 33.2489 3.22429 33.2957C3.20524 33.3426 3.19687 33.3931 3.19979 33.4435C3.20271 33.494 3.21685 33.5432 3.24117 33.5875C3.20761 33.511 3.22647 33.5519 3.24409 33.5986C3.25879 33.6379 3.27363 33.6771 3.2882 33.7165C3.32981 33.83 3.37143 33.9439 3.41305 34.0576C3.50252 34.303 3.59213 34.5486 3.68923 34.7912C3.71496 34.8749 3.77169 34.9455 3.84781 34.9887C3.92394 35.032 4.01369 35.0445 4.09873 35.0237C4.18354 34.9997 4.25549 34.9433 4.29901 34.8666C4.34252 34.79 4.35409 34.6993 4.33122 34.6142H4.33094Z" fill="#211715"/>
<path d="M12.1455 39.0048C11.1876 36.8844 10.3122 34.73 9.43416 32.5757C9.41952 32.5272 9.39423 32.4827 9.36014 32.4453C9.32605 32.4079 9.28403 32.3786 9.23716 32.3595C9.19028 32.3404 9.13974 32.3321 9.08922 32.3351C9.0387 32.3381 8.98949 32.3523 8.94519 32.3768C8.04075 32.8525 7.11768 33.2911 6.17597 33.6928C5.29335 34.0905 4.37592 34.4059 3.43533 34.6349C3.35061 34.6591 3.27876 34.7155 3.23525 34.7921C3.19174 34.8687 3.18005 34.9593 3.2027 35.0444C3.70083 36.6397 4.18052 38.2421 4.73289 39.8203C5.00644 40.6023 5.29761 41.3784 5.61708 42.143C5.88449 42.8153 6.19838 43.4681 6.55647 44.0967C7.22717 45.2285 8.16102 46.2199 9.43305 46.6508C10.1342 46.8854 10.8782 46.9634 11.6127 46.8793C12.3472 46.7951 13.0544 46.5508 13.6842 46.1636C14.3352 45.7584 14.8772 45.2035 15.3801 44.6305C15.8795 44.0609 16.3394 43.4589 16.8089 42.865C16.8689 42.8013 16.9022 42.7171 16.9022 42.6296C16.9022 42.5422 16.8689 42.458 16.8089 42.3942C16.7462 42.3323 16.6616 42.2976 16.5735 42.2976C16.4854 42.2976 16.4009 42.3323 16.3381 42.3942C15.5398 43.4038 14.7669 44.4964 13.7537 45.3056C13.2313 45.7171 12.6222 46.0043 11.9724 46.1455C11.3226 46.2867 10.6492 46.2782 10.0032 46.1207C8.80203 45.8346 7.9098 44.9989 7.26393 43.9773C6.49336 42.7582 5.98953 41.3644 5.50541 40.0133C4.89727 38.3159 4.3818 36.5879 3.84441 34.8669L3.61192 35.2764C4.59307 35.0605 5.53787 34.6799 6.4602 34.2887C7.41818 33.8825 8.35832 33.4366 9.2806 32.951L8.79163 32.7521C9.69148 34.9601 10.5888 37.1681 11.5706 39.3404C11.6155 39.4162 11.6886 39.4712 11.7738 39.4935C11.8591 39.5159 11.9497 39.5038 12.0261 39.4598C12.1008 39.4138 12.1548 39.3409 12.1771 39.256C12.1993 39.1712 12.188 39.0811 12.1455 39.0044V39.0048Z" fill="#211715"/>
<path d="M26.3479 12.4908C26.3479 12.5087 26.3508 12.5265 26.3501 12.5444L27.004 12.4559C26.9852 12.3136 26.9371 12.1768 26.8626 12.0542C26.7882 11.9316 26.689 11.8257 26.5715 11.7434C26.3349 11.5937 26.0743 11.4858 25.8011 11.4244C25.2165 11.2819 24.6134 11.231 24.0133 11.2736C23.4062 11.2881 22.8057 11.4025 22.2359 11.6122C21.961 11.7107 21.7331 11.9091 21.5978 12.1679C21.4884 12.4299 21.44 12.7134 21.4562 12.9969C21.45 13.5238 21.5912 14.0419 21.8639 14.4928C22.147 14.9178 22.6247 15.147 23.0975 15.2994C23.5467 15.4359 24.0181 15.4847 24.4858 15.4433C24.9916 15.4259 25.4903 15.3184 25.9584 15.1259C26.9934 14.6663 27.1514 13.3935 27.0015 12.4016C26.9776 12.3168 26.9211 12.2449 26.8445 12.2014C26.7679 12.1578 26.6772 12.1463 26.592 12.1691C26.5081 12.1945 26.4371 12.2511 26.3939 12.3274C26.3506 12.4036 26.3383 12.4936 26.3596 12.5786C26.4501 13.1787 26.4071 14.0142 25.874 14.4123C25.6001 14.6167 25.1964 14.7055 24.8631 14.7492C24.5022 14.8036 24.1359 14.813 23.7728 14.7769C23.3744 14.7292 22.9929 14.5886 22.6589 14.3664C22.3546 14.1628 22.2352 13.7865 22.1675 13.4427C22.1319 13.2565 22.1171 13.067 22.1231 12.8776C22.1283 12.6877 22.137 12.4635 22.2958 12.3334C22.4498 12.2295 22.6239 12.1593 22.8069 12.1274C23.0668 12.0571 23.3315 12.0058 23.5988 11.9738C24.1516 11.901 24.712 11.906 25.2634 11.9888C25.5263 12.0274 25.7835 12.0983 26.029 12.2001C26.1166 12.2321 26.1968 12.2815 26.2648 12.3453C26.3223 12.4305 26.3558 12.5295 26.3619 12.632C26.4313 13.0162 27 12.9023 27.016 12.5435C27.016 12.5257 27.0131 12.5079 27.0137 12.49C27.0296 12.0623 26.3637 12.0629 26.3479 12.4908Z" fill="#211715"/>
<path d="M28.007 12.4909C28.007 12.5088 28.0041 12.5265 28.0048 12.5444C28.0057 12.6245 28.0354 12.7015 28.0884 12.7615C28.1414 12.8215 28.2141 12.8605 28.2934 12.8714C28.3729 12.8829 28.4539 12.8651 28.5212 12.8212C28.5884 12.7773 28.6374 12.7103 28.6588 12.6329C28.6614 12.5454 28.6893 12.4605 28.739 12.3884C28.7888 12.3163 28.8583 12.2601 28.9392 12.2266C29.1422 12.1331 29.356 12.0653 29.5757 12.0245C30.0577 11.9313 30.55 11.9033 31.0395 11.9413C31.541 11.9599 32.0371 12.0527 32.5114 12.2168C32.5947 12.2398 32.6708 12.2838 32.7324 12.3445C32.794 12.4052 32.839 12.4806 32.8633 12.5636C32.9055 12.7632 32.9149 12.9684 32.8911 13.171C32.8646 13.5232 32.7712 13.9505 32.5319 14.2253C32.2822 14.5114 31.8816 14.6306 31.5358 14.7191C30.8139 14.8488 30.0706 14.7882 29.3793 14.5431C28.6441 14.2332 28.5575 13.2669 28.6614 12.579C28.6821 12.4939 28.6696 12.4042 28.6264 12.3281C28.5832 12.252 28.5126 12.1953 28.429 12.1695C28.3438 12.1467 28.2532 12.1583 28.1766 12.2018C28.0999 12.2453 28.0435 12.3172 28.0195 12.402C27.8823 13.3097 27.9867 14.3964 28.7938 14.9746C29.1753 15.2477 29.6997 15.3638 30.1586 15.4153C30.618 15.4796 31.0845 15.4743 31.5423 15.3995C32.0542 15.3137 32.5343 15.0942 32.9342 14.7633C33.3032 14.4333 33.4641 13.8865 33.5296 13.4128C33.6021 12.8882 33.6143 12.2226 33.1768 11.8464C32.946 11.6681 32.6775 11.5448 32.3918 11.4857C32.0839 11.4059 31.7707 11.3479 31.4547 11.3122C30.7805 11.2248 30.0967 11.2463 29.4294 11.3759C29.1171 11.4322 28.8157 11.5375 28.5363 11.6878C28.3964 11.7672 28.2767 11.8778 28.1866 12.011C28.0965 12.1442 28.0385 12.2965 28.017 12.4559L28.6709 12.5444C28.6709 12.5265 28.6738 12.5088 28.6731 12.4909C28.6573 12.0638 27.9913 12.0617 28.007 12.4909Z" fill="#211715"/>
<path d="M26.9361 13.0247C26.9965 13.0097 27.0571 12.9963 27.1183 12.9852C27.1445 12.9804 27.1707 12.9764 27.1969 12.9721C27.2855 12.9582 27.1246 12.9786 27.2138 12.9703C27.3283 12.9588 27.4432 12.9534 27.5583 12.9544C27.6113 12.9553 27.6644 12.9578 27.7172 12.9619C27.7481 12.9642 27.779 12.9671 27.8098 12.9706C27.8229 12.972 27.8361 12.9735 27.8493 12.9752C27.8047 12.9691 27.8015 12.9688 27.8397 12.9743C27.9536 12.9936 28.0664 13.0186 28.1776 13.0494C28.2628 13.0729 28.3538 13.0615 28.4306 13.0179C28.5074 12.9743 28.5637 12.902 28.5872 12.8168C28.6107 12.7317 28.5994 12.6407 28.5557 12.5639C28.5121 12.4871 28.4398 12.4307 28.3546 12.4073C27.8341 12.2602 27.2842 12.2516 26.7594 12.3826C26.6747 12.4068 26.6029 12.4632 26.5594 12.5398C26.516 12.6164 26.5043 12.707 26.5269 12.7921C26.5519 12.8762 26.6084 12.9475 26.6848 12.9909C26.7611 13.0342 26.8513 13.0464 26.9364 13.0247H26.9361Z" fill="#211715"/>
<path d="M21.8704 12.2331C21.6419 12.181 21.4078 12.1577 21.1736 12.1638C21.0855 12.1652 21.0013 12.1999 20.9378 12.2609C20.891 12.3074 20.8592 12.3668 20.8463 12.4315C20.8334 12.4962 20.84 12.5633 20.8652 12.6242C20.8905 12.6851 20.9333 12.7372 20.9882 12.7738C21.0431 12.8103 21.1076 12.8298 21.1736 12.8296C21.3071 12.8255 21.4408 12.8322 21.5732 12.8499L21.4847 12.8379C21.5547 12.8472 21.6241 12.8597 21.6928 12.8755C21.7795 12.8974 21.8712 12.8854 21.9493 12.842C21.9871 12.8199 22.0201 12.7906 22.0465 12.7558C22.073 12.7209 22.0923 12.6812 22.1034 12.6389C22.1145 12.5966 22.1171 12.5526 22.1112 12.5092C22.1052 12.4659 22.0908 12.4242 22.0687 12.3864C22.0247 12.3117 21.9534 12.257 21.8698 12.2338L21.8704 12.2331Z" fill="#211715"/>
<path d="M33.3323 12.8753C33.4014 12.8597 33.4708 12.8472 33.5404 12.8377L33.4519 12.8496C33.5844 12.832 33.718 12.8252 33.8516 12.8294C33.9175 12.8295 33.9821 12.8101 34.037 12.7735C34.0919 12.737 34.1346 12.6849 34.1599 12.624C34.1852 12.563 34.1918 12.496 34.1789 12.4313C34.1659 12.3666 34.1341 12.3072 34.0874 12.2606C34.0235 12.2002 33.9395 12.1656 33.8516 12.1635C33.6173 12.1575 33.3832 12.1808 33.1548 12.2329C33.0916 12.2503 33.035 12.2859 32.9919 12.3353C32.9489 12.3848 32.9214 12.4458 32.913 12.5108C32.9045 12.5757 32.9154 12.6418 32.9442 12.7006C32.9731 12.7594 33.0187 12.8084 33.0753 12.8414C33.1537 12.884 33.2451 12.8959 33.3318 12.875L33.3323 12.8753Z" fill="#211715"/>
<path d="M25.8725 17.9839C26.2908 18.3938 26.9545 18.5125 27.5156 18.5124C28.0767 18.5122 28.7405 18.3949 29.1594 17.9853C29.4663 17.6851 28.9953 17.2144 28.6886 17.5143C28.6748 17.5282 28.6054 17.5867 28.647 17.554C28.6857 17.5233 28.5958 17.588 28.5752 17.6006C28.5387 17.6231 28.5011 17.6437 28.4628 17.6629C28.4371 17.6758 28.411 17.6881 28.3846 17.6996C28.4298 17.6799 28.3836 17.6996 28.3624 17.7071C28.0906 17.8026 27.8042 17.8495 27.5162 17.8458C27.2332 17.8505 26.9517 17.805 26.6847 17.7113C26.681 17.7099 26.5846 17.6697 26.6473 17.6974C26.6252 17.6882 26.6034 17.678 26.5818 17.6668C26.5392 17.6458 26.4974 17.6232 26.4569 17.5982C26.4259 17.5791 26.3967 17.5577 26.3668 17.5372C26.4518 17.5952 26.3644 17.5322 26.3436 17.5118C26.0373 17.2116 25.5668 17.6822 25.8728 17.9826L25.8725 17.9839Z" fill="#211715"/>
<path d="M27.347 14.8886C27.4129 15.1272 27.4657 15.3692 27.5051 15.6137L27.4932 15.5252C27.4979 15.5583 27.4989 15.5919 27.496 15.6253L27.5078 15.5368C27.5056 15.5521 27.5019 15.5672 27.4968 15.5818L27.5304 15.5023C27.5259 15.5123 27.5206 15.522 27.5144 15.5311L27.5664 15.4638C27.5595 15.4725 27.5515 15.4803 27.5428 15.4871L27.6101 15.4351C27.5917 15.4465 27.5725 15.4567 27.5527 15.4655L27.6323 15.4319C27.6012 15.445 27.5686 15.4544 27.5352 15.4597L27.6237 15.4477C27.5935 15.4513 27.563 15.4513 27.5329 15.4477L27.6214 15.4595C27.5871 15.4548 27.5534 15.4465 27.5191 15.4418C27.4324 15.4216 27.3413 15.4335 27.2626 15.4754C27.2249 15.4974 27.1918 15.5267 27.1654 15.5615C27.1389 15.5964 27.1196 15.6361 27.1085 15.6784C27.0974 15.7207 27.0948 15.7648 27.1007 15.8081C27.1067 15.8514 27.1211 15.8932 27.1432 15.9309C27.1643 15.9685 27.1929 16.0013 27.227 16.0276C27.2612 16.0538 27.3004 16.0728 27.3421 16.0835C27.4168 16.0935 27.489 16.1126 27.5648 16.116C27.6772 16.1168 27.7883 16.0906 27.8885 16.0397C27.9514 16.0116 28.0071 15.9697 28.0515 15.9172C28.096 15.8647 28.1281 15.8029 28.1454 15.7363C28.1681 15.6269 28.1669 15.514 28.142 15.4052C28.1026 15.1716 28.0488 14.94 27.9894 14.7116C27.9659 14.6264 27.9096 14.5541 27.8328 14.5105C27.756 14.4669 27.665 14.4555 27.5798 14.479C27.4947 14.5025 27.4223 14.5588 27.3787 14.6356C27.3351 14.7124 27.3238 14.8034 27.3473 14.8886H27.347Z" fill="#211715"/>
<path d="M23.6412 12.8784C23.5273 13.2476 23.601 14.0971 24.3005 14.1698C25.2251 14.1648 25.2749 13.1377 24.9639 12.6547C24.7092 12.2592 23.96 12.0944 23.6412 12.8784Z" fill="#211715"/>
<path d="M31.2646 12.8825C31.3781 13.2518 31.3036 14.1013 30.6039 14.1726C29.6794 14.1666 29.6307 13.1395 29.9421 12.6568C30.1972 12.2627 30.9465 12.098 31.2646 12.8825Z" fill="#211715"/>
</svg>
