<svg width="25" height="25" viewBox="0 0 25 25" fill="none" xmlns="http://www.w3.org/2000/svg">
<path d="M20.5383 7.31994L14.7783 3.28994C13.2083 2.18994 10.7983 2.24994 9.28828 3.41994L4.27828 7.32994C3.27828 8.10994 2.48828 9.70994 2.48828 10.9699V17.8699C2.48828 20.4199 4.55828 22.4999 7.10828 22.4999H17.8883C20.4383 22.4999 22.5083 20.4299 22.5083 17.8799V11.0999C22.5083 9.74994 21.6383 8.08994 20.5383 7.31994ZM13.2483 18.4999C13.2483 18.9099 12.9083 19.2499 12.4983 19.2499C12.0883 19.2499 11.7483 18.9099 11.7483 18.4999V15.4999C11.7483 15.0899 12.0883 14.7499 12.4983 14.7499C12.9083 14.7499 13.2483 15.0899 13.2483 15.4999V18.4999Z" fill="#A2A2A2"/>
</svg>
