<svg width="21" height="21" viewBox="0 0 21 21" fill="none" xmlns="http://www.w3.org/2000/svg">
<path d="M18.5383 5.31994L12.7783 1.28994C11.2083 0.189938 8.79828 0.249938 7.28828 1.41994L2.27828 5.32994C1.27828 6.10994 0.488281 7.70994 0.488281 8.96994V15.8699C0.488281 18.4199 2.55828 20.4999 5.10828 20.4999H15.8883C18.4383 20.4999 20.5083 18.4299 20.5083 15.8799V9.09994C20.5083 7.74994 19.6383 6.08994 18.5383 5.31994ZM11.2483 16.4999C11.2483 16.9099 10.9083 17.2499 10.4983 17.2499C10.0883 17.2499 9.74828 16.9099 9.74828 16.4999V13.4999C9.74828 13.0899 10.0883 12.7499 10.4983 12.7499C10.9083 12.7499 11.2483 13.0899 11.2483 13.4999V16.4999Z" fill="#04A488"/>
</svg>
