<svg width="20" height="24" viewBox="0 0 20 24" fill="none" xmlns="http://www.w3.org/2000/svg">
<path fill-rule="evenodd" clip-rule="evenodd" d="M10.0034 14.0033C12.4887 14.0033 14.5034 11.9886 14.5034 9.50335C14.5034 7.01806 12.4887 5.00335 10.0034 5.00335C7.51816 5.00335 5.50344 7.01806 5.50344 9.50335C5.50344 11.9886 7.51816 14.0033 10.0034 14.0033ZM10.0034 12.0069C8.62074 12.0069 7.49985 10.886 7.49985 9.50335C7.49985 8.12065 8.62074 6.99976 10.0034 6.99976C11.3861 6.99976 12.507 8.12065 12.507 9.50335C12.507 10.886 11.3861 12.0069 10.0034 12.0069Z" fill="#1E1E1E"/>
<path fill-rule="evenodd" clip-rule="evenodd" d="M19.2718 11.5816C20.5647 5.78803 16.005 0.00341797 9.99984 0.00341797C3.99633 0.00341797 -0.563761 5.79597 0.728007 11.5824C1.72507 16.2819 5.75705 20.8464 8.16344 23.2267C9.19404 24.2462 10.8057 24.2462 11.8363 23.2267C14.2428 20.8463 18.275 16.2815 19.2718 11.5816ZM9.99984 2.00342C14.7123 2.00342 18.3366 6.58969 17.3199 11.146C16.8315 13.3353 15.7357 15.3014 14.45 17.1189C13.1062 19.0183 11.5828 20.6643 10.4298 21.8049C10.1784 22.0535 9.82128 22.0535 9.56993 21.8049C8.41697 20.6644 6.89364 19.0185 5.54993 17.1192C4.26404 15.3016 3.16871 13.336 2.67996 11.1466C1.66423 6.5967 5.28997 2.00342 9.99984 2.00342Z" fill="#1E1E1E"/>
</svg>
