<svg width="25" height="25" viewBox="0 0 25 25" fill="none" xmlns="http://www.w3.org/2000/svg">
<path fill-rule="evenodd" clip-rule="evenodd" d="M6.08579 5.08579C5.5 5.67157 5.5 6.61438 5.5 8.5V17.5C5.5 19.3856 5.5 20.3284 6.08579 20.9142C6.67157 21.5 7.61438 21.5 9.5 21.5H15.5C17.3856 21.5 18.3284 21.5 18.9142 20.9142C19.5 20.3284 19.5 19.3856 19.5 17.5V8.5C19.5 6.61438 19.5 5.67157 18.9142 5.08579C18.3284 4.5 17.3856 4.5 15.5 4.5H9.5C7.61438 4.5 6.67157 4.5 6.08579 5.08579ZM9.5 8.5C8.94772 8.5 8.5 8.94772 8.5 9.5C8.5 10.0523 8.94772 10.5 9.5 10.5H15.5C16.0523 10.5 16.5 10.0523 16.5 9.5C16.5 8.94772 16.0523 8.5 15.5 8.5H9.5ZM9.5 12.5C8.94772 12.5 8.5 12.9477 8.5 13.5C8.5 14.0523 8.94772 14.5 9.5 14.5H15.5C16.0523 14.5 16.5 14.0523 16.5 13.5C16.5 12.9477 16.0523 12.5 15.5 12.5H9.5ZM9.5 16.5C8.94772 16.5 8.5 16.9477 8.5 17.5C8.5 18.0523 8.94772 18.5 9.5 18.5H13.5C14.0523 18.5 14.5 18.0523 14.5 17.5C14.5 16.9477 14.0523 16.5 13.5 16.5H9.5Z" fill="#A2A2A2"/>
</svg>
