<svg width="15" height="18" viewBox="0 0 15 18" fill="none" xmlns="http://www.w3.org/2000/svg">
<path fill-rule="evenodd" clip-rule="evenodd" d="M1.08579 1.08579C0.5 1.67157 0.5 2.61438 0.5 4.5V13.5C0.5 15.3856 0.5 16.3284 1.08579 16.9142C1.67157 17.5 2.61438 17.5 4.5 17.5H10.5C12.3856 17.5 13.3284 17.5 13.9142 16.9142C14.5 16.3284 14.5 15.3856 14.5 13.5V4.5C14.5 2.61438 14.5 1.67157 13.9142 1.08579C13.3284 0.5 12.3856 0.5 10.5 0.5H4.5C2.61438 0.5 1.67157 0.5 1.08579 1.08579ZM4.5 4.5C3.94772 4.5 3.5 4.94772 3.5 5.5C3.5 6.05228 3.94772 6.5 4.5 6.5H10.5C11.0523 6.5 11.5 6.05228 11.5 5.5C11.5 4.94772 11.0523 4.5 10.5 4.5H4.5ZM4.5 8.5C3.94772 8.5 3.5 8.94772 3.5 9.5C3.5 10.0523 3.94772 10.5 4.5 10.5H10.5C11.0523 10.5 11.5 10.0523 11.5 9.5C11.5 8.94772 11.0523 8.5 10.5 8.5H4.5ZM4.5 12.5C3.94772 12.5 3.5 12.9477 3.5 13.5C3.5 14.0523 3.94772 14.5 4.5 14.5H8.5C9.05228 14.5 9.5 14.0523 9.5 13.5C9.5 12.9477 9.05228 12.5 8.5 12.5H4.5Z" fill="#029687"/>
</svg>
