<svg width="18" height="18" viewBox="0 0 18 18" fill="none" xmlns="http://www.w3.org/2000/svg">
<path fill-rule="evenodd" clip-rule="evenodd" d="M10.2923 1.14037C10.8843 0.844388 11.5766 0.824045 12.1849 1.08476L15.8863 2.67108C16.7136 3.02564 17.25 3.8391 17.25 4.73916V14.2253C17.25 15.8406 15.5984 16.9296 14.1137 16.2933L11.594 15.2135C11.3912 15.1266 11.1605 15.1334 10.9632 15.232L7.70766 16.8598C7.11569 17.1557 6.42344 17.1761 5.81511 16.9154L2.11368 15.329C1.28639 14.9745 0.75 14.161 0.75 13.261V3.77487C0.75 2.15956 2.40161 1.0705 3.88632 1.7068L6.40599 2.78666C6.60877 2.87356 6.83952 2.86678 7.03684 2.76812L10.2923 1.14037ZM12 2.63747V13.7649C12.0623 13.7854 12.124 13.8087 12.1849 13.8348L14.7046 14.9146C15.1995 15.1267 15.75 14.7637 15.75 14.2253V4.73916C15.75 4.43914 15.5712 4.16799 15.2954 4.0498L12 2.63747ZM10.5 13.7993V2.71359L7.70766 4.10976C7.63967 4.14376 7.57036 4.17411 7.5 4.20083V15.2865L10.2923 13.8904C10.3603 13.8564 10.4296 13.826 10.5 13.7993ZM5.81511 4.16538C5.87596 4.19145 5.93765 4.21472 6 4.23518V15.3627L2.70456 13.9503C2.4288 13.8321 2.25 13.561 2.25 13.261V3.77487C2.25 3.23644 2.80054 2.87342 3.29544 3.08552L5.81511 4.16538Z" fill="#04A488"/>
</svg>
