<svg width="16" height="18" viewBox="0 0 16 18" fill="none" xmlns="http://www.w3.org/2000/svg">
<path fill-rule="evenodd" clip-rule="evenodd" d="M8.00063 10.5026C9.86459 10.5026 11.3756 8.99159 11.3756 7.12763C11.3756 5.26367 9.86459 3.75263 8.00063 3.75263C6.13666 3.75263 4.62562 5.26367 4.62562 7.12763C4.62562 8.99159 6.13666 10.5026 8.00063 10.5026ZM8.00063 9.00532C6.9636 9.00532 6.12293 8.16465 6.12293 7.12763C6.12293 6.09061 6.9636 5.24994 8.00063 5.24994C9.03765 5.24994 9.87832 6.09061 9.87832 7.12763C9.87832 8.16465 9.03765 9.00532 8.00063 9.00532Z" fill="#04A488"/>
<path fill-rule="evenodd" clip-rule="evenodd" d="M14.9519 8.68635C15.9216 4.34115 12.5018 0.00268555 7.99793 0.00268555C3.4953 0.00268555 0.0752263 4.3471 1.04405 8.6869C1.79185 12.2116 4.81583 15.6349 6.62063 17.4202C7.39358 18.1848 8.60228 18.1848 9.37523 17.4202C11.1801 15.6348 14.2043 12.2112 14.9519 8.68635ZM7.99793 1.50269C11.5323 1.50269 14.2505 4.94239 13.4879 8.35965C13.1217 10.0016 12.2998 11.4762 11.3355 12.8393C10.3277 14.2638 9.18513 15.4984 8.32036 16.3538C8.13185 16.5402 7.86401 16.5402 7.6755 16.3538C6.81078 15.4984 5.66828 14.264 4.6605 12.8395C3.69607 11.4763 2.87458 10.0021 2.50802 8.36008C1.74622 4.94765 4.46552 1.50269 7.99793 1.50269Z" fill="#04A488"/>
</svg>
