<?xml version="1.0" encoding="UTF-8"?>
<svg version="1.1" xmlns="http://www.w3.org/2000/svg" width="1800" height="1800">
<path d="M0 0 C1.76315842 -0.00702084 3.52631658 -0.01410767 5.28947449 -0.02125549 C10.89220546 -0.04065642 16.49489507 -0.04568937 22.09765625 -0.046875 C23.05173119 -0.04731686 24.00580612 -0.04775871 24.98879242 -0.04821396 C52.33021324 -0.05485732 79.55311675 0.03907478 106.76934814 2.94989014 C109.30083544 3.21802577 111.83350778 3.47164144 114.36669922 3.72314453 C198.82634789 12.18610907 282.85748845 31.98884212 382.16015625 73.203125 C383.89555664 73.95021729 383.89555664 73.95021729 385.66601562 74.71240234 C388.97976833 76.1395517 392.28970453 77.57508588 395.59765625 79.015625 C396.53697998 79.42312988 397.47630371 79.83063477 398.4440918 80.25048828 C406.83004708 83.94429314 414.98886016 88.06276842 423.16015625 92.203125 C424.4874693 92.87263491 425.8148609 93.54198911 427.14233398 94.21118164 C444.28656761 102.8682927 461.15250506 111.80506604 477.62792969 121.69091797 C479.95379047 123.07988651 482.29068455 124.44624463 484.63671875 125.80078125 C507.98202456 139.29364101 530.35030007 154.36488153 552.16015625 170.203125 C552.88170898 170.72487305 553.60326172 171.24662109 554.34667969 171.78417969 C564.26066892 178.96384678 573.9486203 186.33589803 583.39453125 194.12109375 C586.9523123 197.05033348 590.57959252 199.8812647 594.22265625 202.703125 C604.73962334 210.89431083 614.69457452 219.76488231 624.5 228.7890625 C626.66775765 230.75627869 628.85578432 232.69032387 631.0625 234.61328125 C643.44982021 245.43139627 655.08778823 257.02692783 666.72265625 268.640625 C667.71268646 269.62677292 667.71268646 269.62677292 668.72271729 270.63284302 C681.48280413 283.35349918 681.48280413 283.35349918 686.71166992 289.50952148 C689.21722024 292.43906852 691.89062387 295.21208081 694.53515625 298.015625 C699.1661184 302.96407472 703.5651382 308.02185244 707.80078125 313.31640625 C710.06177599 316.08275577 712.39182204 318.76708685 714.75366211 321.44677734 C721.7184259 329.35694237 728.14477051 337.58281079 734.48339844 345.99853516 C736.77050697 349.00561 739.10785532 351.97190482 741.44433594 354.94067383 C748.16333461 363.48885624 754.56272304 372.21096818 760.74414062 381.15478516 C762.12181027 383.14765555 763.50744686 385.13476895 764.89453125 387.12109375 C788.90068487 421.62425118 810.1872041 457.7188209 829.16015625 495.203125 C829.94917984 496.75262398 830.73823632 498.30210622 831.52734375 499.8515625 C833.10987392 502.97325008 834.66691061 506.10647604 836.20458984 509.25048828 C836.87617841 510.62283507 837.55130096 511.99345531 838.22900391 513.36279297 C852.119143 541.49464481 863.70196814 570.64374661 874.16015625 600.203125 C874.41496765 600.92288513 874.66977905 601.64264526 874.93231201 602.38421631 C895.36035142 660.27477794 909.2417112 719.84705184 917.53515625 780.640625 C917.65667053 781.52844666 917.77818481 782.41626831 917.90338135 783.33099365 C918.59198311 788.40983134 919.23471713 793.49234401 919.84453583 798.58123779 C920.03888872 800.1957447 920.23670303 801.80984474 920.44025421 803.42321777 C922.55539841 820.48965348 922.5054328 837.58924199 922.52760196 854.75527382 C922.53129685 857.26621472 922.53756253 859.77713706 922.54460335 862.28807068 C922.56899242 871.13215984 922.582122 879.97619147 922.58569336 888.8203125 C922.58890102 896.03268784 922.60994303 903.24475312 922.6472168 910.45703125 C923.03609929 987.39642881 923.03609929 987.39642881 917.53126717 1022.80065918 C917.12017635 1025.46194344 916.72501074 1028.12532749 916.33177185 1030.78930664 C903.6779341 1116.20266216 879.98106665 1199.97538671 843.16015625 1278.203125 C842.32967773 1279.97139648 842.32967773 1279.97139648 841.48242188 1281.77539062 C830.15778217 1305.8177861 818.40008154 1329.81441162 804.71533203 1352.61132812 C803.59133866 1354.48453277 802.4732625 1356.36129229 801.35888672 1358.24023438 C790.23969984 1376.98074939 778.43907323 1395.20281938 766.16015625 1413.203125 C765.5686377 1414.0703418 764.97711914 1414.93755859 764.36767578 1415.83105469 C756.61868203 1427.12977307 748.31912968 1438.00388016 739.96240234 1448.85742188 C738.40179382 1450.888623 736.85017434 1452.92603907 735.3046875 1454.96875 C730.34036911 1461.51546289 725.16107598 1467.8346554 719.8203125 1474.07421875 C717.34236477 1476.97364083 714.93356607 1479.92493911 712.53515625 1482.890625 C708.90947278 1487.34503613 705.13585972 1491.63261101 701.26953125 1495.87890625 C699.41388968 1497.92354835 697.59259249 1499.99096649 695.78515625 1502.078125 C691.01332753 1507.54720723 686.08859749 1512.87565017 681.16015625 1518.203125 C680.60827637 1518.80157227 680.05639648 1519.40001953 679.48779297 1520.01660156 C672.04373797 1528.07768275 664.4683813 1535.99345308 656.72265625 1543.765625 C655.98974365 1544.50312988 655.25683105 1545.24063477 654.50170898 1546.00048828 C650.44871917 1550.04197307 646.30549911 1553.91130983 641.95092773 1557.62670898 C640.10719606 1559.24974585 638.37946574 1560.94952214 636.66015625 1562.703125 C633.67143288 1565.73907425 630.54309146 1568.54821159 627.31640625 1571.328125 C624.96052667 1573.37671594 622.65508165 1575.47515502 620.34765625 1577.578125 C616.05055798 1581.45663227 611.62256871 1585.13178468 607.12109375 1588.76953125 C604.46206562 1590.95498577 601.85890855 1593.1878351 599.2644043 1595.44848633 C591.48094187 1602.22096676 583.37820863 1608.49749039 575.13964844 1614.70410156 C573.35780383 1616.05345108 571.58767503 1617.41581782 569.82421875 1618.7890625 C543.89672643 1638.96940287 516.36794398 1657.3680523 488.16015625 1674.203125 C487.24073242 1674.75339355 486.32130859 1675.30366211 485.37402344 1675.87060547 C469.88330988 1685.10835392 454.14909201 1693.8582665 438.16015625 1702.203125 C437.56479065 1702.51401062 436.96942505 1702.82489624 436.35601807 1703.14520264 C359.96746464 1742.95754698 276.69135965 1771.85459513 181.16015625 1789.203125 C180.39328491 1789.33356201 179.62641357 1789.46399902 178.83630371 1789.59838867 C154.38485249 1793.73727033 129.85415061 1796.91642697 105.16015625 1799.203125 C104.31678144 1799.28568228 103.47340664 1799.36823956 102.60447502 1799.45329857 C94.95321341 1800.1562425 87.3694316 1800.36280372 79.6887207 1800.38012695 C78.39708008 1800.38669815 77.10543945 1800.39326935 75.7746582 1800.40003967 C71.52426344 1800.42087191 67.2738693 1800.43144428 63.0234375 1800.44140625 C61.53722811 1800.44546598 60.05101888 1800.4495832 58.5648098 1800.45375633 C51.55258861 1800.47278733 44.54037758 1800.48700503 37.5281356 1800.4953683 C30.34572325 1800.50408502 23.1635282 1800.52320293 15.98120117 1800.55981445 C-18.48010668 1800.73168593 -52.61201352 1800.80550996 -86.83984375 1796.203125 C-88.95700294 1795.94139015 -91.0744078 1795.68162887 -93.19213867 1795.42456055 C-98.00428702 1794.82302874 -102.79734363 1794.13113722 -107.58984375 1793.390625 C-108.82385422 1793.20445618 -108.82385422 1793.20445618 -110.08279419 1793.01452637 C-167.34259808 1784.36597704 -223.1688795 1770.23109243 -277.83984375 1751.203125 C-278.50286499 1750.97280579 -279.16588623 1750.74248657 -279.84899902 1750.50518799 C-299.88759627 1743.52928339 -319.41704159 1735.53254614 -338.86090088 1727.06439209 C-340.94382664 1726.15787001 -343.02829171 1725.25494354 -345.11279297 1724.35205078 C-346.52709925 1723.73749111 -347.94132675 1723.1227501 -349.35546875 1722.5078125 C-349.99648529 1722.23040222 -350.63750183 1721.95299194 -351.29794312 1721.66717529 C-357.0357861 1719.16442044 -362.63164171 1716.40479539 -368.203125 1713.55078125 C-371.72740152 1711.75687509 -375.2700818 1710.00368821 -378.8203125 1708.26171875 C-392.51087642 1701.52417562 -405.89361216 1694.41174709 -419.10351562 1686.77636719 C-421.78188142 1685.23645024 -424.47212548 1683.72001287 -427.16796875 1682.2109375 C-453.33719529 1667.52238819 -478.63815718 1650.94498723 -502.83984375 1633.203125 C-503.56478027 1632.67509277 -504.2897168 1632.14706055 -505.03662109 1631.60302734 C-515.46762252 1624.00418527 -525.78025363 1616.28801369 -535.83984375 1608.203125 C-536.48018555 1607.6889502 -537.12052734 1607.17477539 -537.78027344 1606.64501953 C-549.62156165 1597.11876326 -561.33493375 1587.46380568 -572.5859375 1577.2421875 C-574.60867065 1575.41226253 -576.6535381 1573.61430772 -578.71484375 1571.828125 C-586.38313889 1565.13777033 -593.86215014 1558.26634325 -601 1551.01171875 C-602.78265515 1549.25934225 -604.62344921 1547.63452909 -606.52734375 1546.015625 C-614.62428834 1539.03881108 -622.18989941 1531.30665741 -629.1015625 1523.16015625 C-631.25245014 1520.73859511 -633.5359589 1518.47937705 -635.83984375 1516.203125 C-639.41067887 1512.66999101 -642.805356 1509.06939405 -646.0703125 1505.25390625 C-648.07770398 1502.92745917 -650.14451013 1500.66119814 -652.21484375 1498.390625 C-656.09335102 1494.09352673 -659.76850343 1489.66553746 -663.40625 1485.1640625 C-665.59144937 1482.50534481 -667.82398156 1479.90246061 -670.08447266 1477.30834961 C-676.80539797 1469.58353648 -683.03970935 1461.54873333 -689.19873047 1453.37207031 C-690.81874764 1451.23100626 -692.45315557 1449.10188922 -694.09375 1446.9765625 C-697.36641307 1442.73674098 -700.6117701 1438.47698286 -703.83984375 1434.203125 C-704.32291992 1433.5652002 -704.80599609 1432.92727539 -705.30371094 1432.27001953 C-727.8507207 1402.3019892 -747.53305315 1369.88805029 -765.83984375 1337.203125 C-766.3208252 1336.34557617 -766.80180664 1335.48802734 -767.29736328 1334.60449219 C-773.01831692 1324.37792699 -778.56852571 1314.09409112 -783.69091797 1303.55419922 C-784.98797767 1300.89999503 -786.30722014 1298.25725704 -787.625 1295.61328125 C-826.76736868 1216.42821973 -852.94629674 1130.74593521 -872.83984375 999.203125 C-872.91763062 998.49230774 -872.99541748 997.78149048 -873.07556152 997.0491333 C-882.52012406 909.81705156 -879.02646162 820.45508395 -856.83984375 705.203125 C-856.69309204 704.53893555 -856.54634033 703.87474609 -856.3951416 703.19042969 C-854.3864856 694.14833648 -852.17862062 685.16510137 -849.83984375 676.203125 C-849.66922424 675.54751587 -849.49860474 674.89190674 -849.32281494 674.21643066 C-829.92109752 599.85313695 -801.76004856 527.39264926 -763.29785156 460.75634766 C-761.5360063 457.67105332 -759.83810571 454.55399303 -758.14404297 451.43115234 C-742.37950506 422.48054131 -723.51886867 394.63744144 -703.83984375 368.203125 C-703.33549805 367.5215332 -702.83115234 366.83994141 -702.31152344 366.13769531 C-689.55693312 348.90809357 -676.18089059 332.21774769 -662.28125 315.89892578 C-660.83784759 314.20077654 -659.40102952 312.49722307 -657.96484375 310.79296875 C-651.17650555 302.76821973 -644.11504479 295.04360933 -636.89746094 287.40429688 C-634.83020031 285.19280877 -632.78685449 282.96032589 -630.74407959 280.72624207 C-624.41363636 273.81691006 -617.90410386 267.11175048 -611.265625 260.49853516 C-609.57303028 258.81136542 -607.88593778 257.11882304 -606.19921875 255.42578125 C-601.14591265 250.36938157 -596.06961061 245.38997914 -590.62841797 240.74658203 C-587.4978906 238.04508135 -584.52785429 235.17212188 -581.52734375 232.328125 C-576.30035715 227.40818727 -570.98121513 222.74937818 -565.37109375 218.26953125 C-562.83846222 216.20199718 -560.43253215 214.04199159 -558.02734375 211.828125 C-553.05914052 207.30658988 -547.83180798 203.19160294 -542.52734375 199.078125 C-539.47901108 196.71292819 -536.47414423 194.29891187 -533.4777832 191.8684082 C-524.16434921 184.32872438 -514.55036846 177.2211582 -504.83984375 170.203125 C-504.14165527 169.69813477 -503.4434668 169.19314453 -502.72412109 168.67285156 C-431.36121609 117.25033951 -352.00152696 75.50767441 -250.80682373 41.83404541 C-248.97165638 41.24540468 -247.13834055 40.65100026 -245.30517578 40.05615234 C-168.63417558 15.23098584 -85.61056225 0.41251735 0 0 Z " fill="#000000" transform="translate(877.83984375,-0.203125)"/>
<path d="M0 0 C39.49103552 -0.45823845 78.98172329 -0.81042282 118.47488839 -1.02130659 C123.14219882 -1.04631934 127.80950402 -1.07220592 132.47680664 -1.09863281 C133.40594379 -1.10387902 134.33508095 -1.10912523 135.29237377 -1.11453041 C150.31773041 -1.20145016 165.34154949 -1.35907708 180.36599535 -1.54305592 C195.79403106 -1.73039464 211.22126421 -1.84123855 226.65039057 -1.8817699 C236.16449875 -1.90915337 245.67426123 -1.99546383 255.18703055 -2.15832934 C261.7193158 -2.26443807 268.24937069 -2.2959205 274.7824542 -2.27002755 C278.5482067 -2.25726708 282.30639977 -2.27612754 286.07078934 -2.3841095 C307.92590962 -2.98005769 307.92590962 -2.98005769 314.62453151 1.91975498 C319.19331316 6.5296265 322.45059054 11.718158 325.52373874 17.40122461 C327.95683731 21.68439376 330.9572885 25.5255704 333.9375 29.4375 C335.09485794 31.00734066 336.25008054 32.57875976 337.40234375 34.15234375 C341.87808272 40.20935401 346.46156932 46.18341311 351.03881836 52.16381836 C356.00673002 58.66603498 360.87586332 65.23462618 365.7109375 71.8359375 C370.07277032 77.77671433 374.52054548 83.6475326 379 89.5 C384.65067561 96.88268346 390.21023936 104.32359573 395.70214844 111.82495117 C400.14481102 117.87779513 404.68378637 123.85247959 409.25 129.8125 C413.99569878 136.00877085 418.65458099 142.24064107 423.14257812 148.62548828 C427.54319952 154.84399405 432.20347725 160.86366787 436.8359375 166.91015625 C441.28724225 172.72852838 445.6724824 178.58907773 450 184.5 C454.92549154 191.22508218 459.93348707 197.88053292 465 204.5 C470.65067561 211.88268346 476.21023936 219.32359573 481.70214844 226.82495117 C486.14480935 232.87779285 490.68368675 238.85255779 495.25 244.8125 C500.04549339 251.0718033 504.7452881 257.37133876 509.27441406 263.82543945 C512.70064677 268.66831509 516.33782848 273.33399937 520 278 C524.07649987 283.19389954 528.08211603 288.40755978 531.875 293.8125 C536.0210477 299.7179246 540.36204266 305.4599025 544.75 311.1875 C550.06147941 318.12252371 555.32379454 325.08832043 560.5 332.125 C561.36540405 333.29977905 561.36540405 333.29977905 562.24829102 334.49829102 C564.70719664 337.84470732 567.15159773 341.19867678 569.54296875 344.59375 C570.25066406 345.5940625 570.95835937 346.594375 571.6875 347.625 C572.26886719 348.46289062 572.85023438 349.30078125 573.44921875 350.1640625 C574.96010923 352.27597004 574.96010923 352.27597004 578 353 C578.24363281 352.42765625 578.48726562 351.8553125 578.73828125 351.265625 C580.22517298 348.59566462 581.98083908 346.86170993 584.1875 344.75 C587.71306912 341.36644155 590.93175911 337.81666377 594.12817383 334.12792969 C597.24555448 330.58402858 600.50109071 327.17294388 603.75 323.75 C609.2934378 317.88579381 614.7877743 311.98487201 620.2265625 306.0234375 C623.45743622 302.49048063 626.72937744 298.99612198 630 295.5 C634.1898315 291.02066868 638.36208916 286.52736128 642.5 282 C647.23331851 276.82119269 652.01594724 271.69029399 656.80859375 266.56640625 C660.39387131 262.7300808 663.95752254 258.8758871 667.5 255 C672.23331851 249.82119269 677.01594724 244.69029399 681.80859375 239.56640625 C685.39387131 235.7300808 688.95752254 231.8758871 692.5 228 C697.23331851 222.82119269 702.01594724 217.69029399 706.80859375 212.56640625 C710.39387131 208.7300808 713.95752254 204.8758871 717.5 201 C721.63791184 196.47263764 725.81024595 191.97940488 730 187.5 C735.13247534 182.01193233 740.22974271 176.49404776 745.30078125 170.94921875 C753.10293432 162.424435 760.966465 153.95777992 768.85864258 145.51635742 C773.32269837 140.73709041 777.74417969 135.92107399 782.15625 131.09375 C786.00997055 126.88969122 789.91281644 122.73143815 793.80859375 118.56640625 C797.39387131 114.7300808 800.95752254 110.8758871 804.5 107 C809.23331851 101.82119269 814.01594724 96.69029399 818.80859375 91.56640625 C822.39387131 87.7300808 825.95752254 83.8758871 829.5 80 C834.23401631 74.82042922 839.01723667 69.68866529 843.81079102 64.56420898 C847.37542282 60.75021368 850.91725824 56.91750473 854.4375 53.0625 C858.79325 48.29498043 863.200926 43.57913408 867.625 38.875 C872.30579979 33.89730111 876.92810812 28.88014731 881.47265625 23.77734375 C885.74606209 19.08122079 890.12769579 14.48560934 894.50561523 9.88696289 C895.17149658 9.18434326 895.83737793 8.48172363 896.5234375 7.7578125 C897.4194165 6.81639404 897.4194165 6.81639404 898.33349609 5.85595703 C900.07294585 4.08096577 900.07294585 4.08096577 901.05503845 1.91238403 C903.62497792 -0.61450973 905.71398943 -0.47296714 909.21170044 -0.49768066 C910.06118256 -0.48329956 910.91066467 -0.46891846 911.78588867 -0.45410156 C913.13253853 -0.45497772 913.13253853 -0.45497772 914.50639343 -0.45587158 C917.47731027 -0.45308223 920.44722694 -0.42195001 923.41796875 -0.390625 C925.47633821 -0.38316564 927.53471477 -0.37747127 929.59309387 -0.37347412 C935.01349458 -0.35819382 940.43346726 -0.31889117 945.85369873 -0.2746582 C951.38352671 -0.23375726 956.91342377 -0.21547416 962.44335938 -0.1953125 C973.29576108 -0.1523994 984.14784496 -0.08411895 995 0 C994.04515603 1.28765943 993.08830883 2.57383356 992.13061523 3.859375 C991.59798569 4.57577148 991.06535614 5.29216797 990.5165863 6.03027344 C988.84354198 8.20320605 987.05288753 10.11481266 985.0625 12 C982.46922503 14.46663947 980.07393044 17.03287525 977.73046875 19.734375 C974.01517905 24.01549763 970.15176345 28.13915411 966.25 32.25 C959.76744892 39.10882723 953.35556432 46.02343398 947 53 C940.19430859 60.46265107 933.32580314 67.85970416 926.40722656 75.21777344 C923.06520953 78.77793335 919.75117229 82.35623332 916.5 86 C911.99477214 91.04823084 907.35953122 95.97024607 902.7253418 100.8996582 C896.77644533 107.22952214 890.88219416 113.60821474 885 120 C878.09840022 127.49468791 871.17227081 134.96535882 864.21582031 142.40917969 C858.94471894 148.05242721 853.70415578 153.72333708 848.47216797 159.40283203 C846.97349867 161.02875152 845.47332336 162.6532681 843.97265625 164.27734375 C839.19851083 169.44453668 834.4323917 174.61838778 829.6875 179.8125 C825.28793164 184.61955371 820.83898468 189.37776335 816.375 194.125 C812.37410417 198.3800155 808.38874352 202.64167236 804.5 207 C799.97115688 212.07572228 795.30851601 217.02177547 790.6484375 221.9765625 C786.90461453 225.95999014 783.18545102 229.96250589 779.5 234 C775.2053433 238.70367162 770.86202474 243.35877077 766.5 248 C761.22762365 253.61018847 756.00008265 259.2562245 750.80859375 264.94140625 C747.56443698 268.48462825 744.28178925 271.99166685 741 275.5 C736.81018786 279.97934971 732.63791109 284.47263845 728.5 289 C723.76668149 294.17880731 718.98405276 299.30970601 714.19140625 304.43359375 C710.60612869 308.2699192 707.04247746 312.1241129 703.5 316 C698.76668149 321.17880731 693.98405276 326.30970601 689.19140625 331.43359375 C685.60612869 335.2699192 682.04247746 339.1241129 678.5 343 C674.36208816 347.52736236 670.18975405 352.02059512 666 356.5 C660.86752466 361.98806767 655.77025729 367.50595224 650.69921875 373.05078125 C647.8682996 376.14389841 645.03047652 379.2304688 642.1875 382.3125 C641.70015381 382.84109619 641.21280762 383.36969238 640.71069336 383.91430664 C637.89802087 386.96019181 635.0721429 389.99309907 632.234375 393.015625 C631.60249268 393.68940186 630.97061035 394.36317871 630.31958008 395.05737305 C629.09202015 396.36518855 627.86276838 397.67141871 626.6315918 398.97583008 C622.44846185 403.21213872 622.44846185 403.21213872 619 408 C619.45532145 411.48035185 620.97432378 413.58607239 623.10546875 416.31640625 C624.07516602 417.57130859 624.07516602 417.57130859 625.06445312 418.8515625 C625.76505859 419.74617188 626.46566406 420.64078125 627.1875 421.5625 C628.66145775 423.4690466 630.13408962 425.3766189 631.60546875 427.28515625 C632.71801025 428.72592529 632.71801025 428.72592529 633.85302734 430.19580078 C636.96065782 434.25473229 639.98464007 438.37231313 643 442.5 C647.92471745 449.22563629 652.93350094 455.88055103 658 462.5 C663.65290465 469.88559574 669.21433838 477.32967004 674.70874023 484.83374023 C679.08782606 490.79958611 683.56077261 496.68881759 688.0625 502.5625 C693.52195656 509.6889662 698.84714321 516.89191237 704.06884766 524.19384766 C708.90970043 530.93598658 713.93963711 537.52600271 718.98828125 544.11328125 C723.3894518 549.8634696 727.72220925 555.65753654 732 561.5 C736.92552389 568.22505881 741.93348655 574.88053224 747 581.5 C752.65290465 588.88559574 758.21433838 596.32967004 763.70874023 603.83374023 C768.08782606 609.79958611 772.56077261 615.68881759 777.0625 621.5625 C782.52195656 628.6889662 787.84714321 635.89191237 793.06884766 643.19384766 C797.90970043 649.93598658 802.93963711 656.52600271 807.98828125 663.11328125 C812.3894518 668.8634696 816.72220925 674.65753654 821 680.5 C825.92552389 687.22505881 830.93348655 693.88053224 836 700.5 C841.65290465 707.88559574 847.21433838 715.32967004 852.70874023 722.83374023 C857.08782606 728.79958611 861.56077261 734.68881759 866.0625 740.5625 C871.52195656 747.6889662 876.84714321 754.89191237 882.06884766 762.19384766 C886.90970043 768.93598658 891.93963711 775.52600271 896.98828125 782.11328125 C901.3894518 787.8634696 905.72220925 793.65753654 910 799.5 C914.92552691 806.22506293 919.93366451 812.88039279 925 819.5 C933.0413063 830.01139798 940.89060474 840.65631162 948.70898438 851.33398438 C956.05188811 861.35616884 963.48735999 871.29725718 971.03857422 881.16357422 C976.00664488 887.66581386 980.87579599 894.23453424 985.7109375 900.8359375 C990.07277032 906.77671433 994.52054548 912.6475326 999 918.5 C1004.64781662 925.87894815 1010.2057912 933.31523774 1015.69335938 940.81396484 C1020.86044623 947.85610916 1026.15655594 954.79684296 1031.49609375 961.70898438 C1043 976.6828828 1043 976.6828828 1043 979 C1003.61922512 979.41235704 964.2387325 979.72935219 924.85622855 979.91917593 C920.20265144 979.94168758 915.54907858 979.96498549 910.89550781 979.98876953 C909.96909896 979.99349112 909.04269012 979.99821271 908.08820827 980.00307737 C893.1043621 980.08131826 878.12176399 980.22319082 863.13865726 980.38875033 C847.75467876 980.55731655 832.37135204 980.65710696 816.98648798 980.69359291 C807.49883672 980.71824514 798.01471304 980.795971 788.52814843 980.9424964 C782.01511555 981.03794493 775.50389504 981.06633836 768.99021421 981.04302479 C765.23527088 981.03153466 761.48646825 981.04860855 757.73262978 981.14569855 C735.86721314 981.68385547 735.86721314 981.68385547 729.43337679 977.21875715 C725.10618736 973.04683998 721.98449728 968.34157355 719.14002728 963.07349753 C717.70506934 960.46357601 715.97692011 958.15797763 714.1328125 955.82421875 C713.12806823 954.44687111 712.12540333 953.0680038 711.125 951.6875 C706.1622521 944.89637129 701.11329775 938.17845525 696 931.5 C690.34634038 924.11367991 684.78529611 916.66805268 679.2890625 909.1640625 C674.92722706 903.2232821 670.47929729 897.35259083 666 891.5 C657.9586937 880.98860202 650.10939526 870.34368838 642.29101562 859.66601562 C634.94811189 849.64383116 627.51264001 839.70274282 619.96142578 829.83642578 C614.99335512 823.33418614 610.12420401 816.76546576 605.2890625 810.1640625 C600.92722968 804.22328567 596.47945452 798.3524674 592 792.5 C586.34646605 785.11358208 580.78529806 777.66805534 575.2890625 770.1640625 C570.92722706 764.2232821 566.47929729 758.35259083 562 752.5 C553.9586937 741.98860202 546.10939526 731.34368838 538.29101562 720.66601562 C530.94811189 710.64383116 523.51264001 700.70274282 515.96142578 690.83642578 C510.99335512 684.33418614 506.12420401 677.76546576 501.2890625 671.1640625 C496.92722868 665.22328431 492.4793966 659.35251303 488 653.5 C482.26074095 646.000177 476.60618373 638.44523936 471.02099609 630.83007812 C467.25440032 625.69548245 463.45444321 620.58787999 459.625 615.5 C455.01881879 609.37890709 450.47766083 603.2160468 446 597 C442.53891463 598.48443842 440.31486374 600.44630233 437.6875 603.125 C436.96949219 603.84945312 436.25148438 604.57390625 435.51171875 605.3203125 C433.52143399 607.44369561 431.59858134 609.5924969 429.69140625 611.7890625 C425.98681655 616.04921608 422.13609577 620.15573742 418.25 624.25 C412.7065622 630.11420619 407.2122257 636.01512799 401.7734375 641.9765625 C398.54256378 645.50951937 395.27062256 649.00387802 392 652.5 C387.8101685 656.97933132 383.63791084 661.47263872 379.5 666 C374.76668149 671.17880731 369.98405276 676.30970601 365.19140625 681.43359375 C361.60612869 685.2699192 358.04247746 689.1241129 354.5 693 C349.76668149 698.17880731 344.98405276 703.30970601 340.19140625 708.43359375 C336.60612869 712.2699192 333.04247746 716.1241129 329.5 720 C325.36208816 724.52736236 321.18975405 729.02059512 317 733.5 C311.86752466 738.98806767 306.77025729 744.50595224 301.69921875 750.05078125 C293.89706568 758.575565 286.033535 767.04222008 278.14135742 775.48364258 C273.67730163 780.26290959 269.25582031 785.07892601 264.84375 789.90625 C260.99002945 794.11030878 257.08718356 798.26856185 253.19140625 802.43359375 C249.60612869 806.2699192 246.04247746 810.1241129 242.5 814 C237.76668149 819.17880731 232.98405276 824.30970601 228.19140625 829.43359375 C224.60612869 833.2699192 221.04247746 837.1241129 217.5 841 C212.76668149 846.17880731 207.98405276 851.30970601 203.19140625 856.43359375 C199.60612869 860.2699192 196.04247746 864.1241129 192.5 868 C188.36208816 872.52736236 184.18975405 877.02059512 180 881.5 C174.86752466 886.98806767 169.77025729 892.50595224 164.69921875 898.05078125 C156.89706568 906.575565 149.033535 915.04222008 141.14135742 923.48364258 C136.67730163 928.26290959 132.25582031 933.07892601 127.84375 937.90625 C124.58635171 941.45977541 121.29289403 944.97939639 118 948.5 C112.93488474 953.91689754 107.8973334 959.35721847 102.890625 964.828125 C102.44465973 965.28851669 101.99869446 965.74890839 101.53921509 966.22325134 C99.86457869 968.07228356 99.86457869 968.07228356 98.27206421 970.67823792 C95.39232593 974.66322191 92.7599024 978.19478189 87.8793335 979.61871719 C81.58762195 980.56829829 75.2372304 980.26148279 68.8984375 980.07421875 C66.85010982 980.05367531 64.8017277 980.03803001 62.75332642 980.02705383 C57.38922107 979.98526327 52.02844761 979.87740546 46.66564941 979.75531006 C41.18250599 979.64231951 35.69881842 979.5924462 30.21484375 979.53710938 C19.47510692 979.41950972 8.73783162 979.23203773 -2 979 C-1.03897452 977.87846069 -0.07790054 976.75696294 0.88319397 975.63548279 C1.41838685 975.01094428 1.95357973 974.38640577 2.50499058 973.74294186 C7.5617004 967.84762703 12.72969665 962.08424949 18.0625 956.4375 C19.37903319 955.03787981 20.69543627 953.63813722 22.01171875 952.23828125 C22.67349121 951.53525879 23.33526367 950.83223633 24.01708984 950.10791016 C34.29355828 939.20615926 34.29355828 939.20615926 44.375 928.125 C49.18991363 922.73301807 54.16829055 917.49774647 59.13183594 912.24316406 C63.37777647 907.74194857 67.55836339 903.19356945 71.67578125 898.57421875 C75.27853363 894.58394343 78.95966202 890.66757149 82.6328125 886.7421875 C86.47769732 882.63270846 90.3101747 878.51240012 94.125 874.375 C94.61347412 873.84527588 95.10194824 873.31555176 95.60522461 872.76977539 C97.0704873 871.18016089 98.53532826 869.59015901 100 868 C106.92636539 860.48021107 113.8767116 852.98413695 120.85888672 845.51611328 C125.32284221 840.73691018 129.7442573 835.92098907 134.15625 831.09375 C138.00997055 826.88969122 141.91281644 822.73143815 145.80859375 818.56640625 C149.39387131 814.7300808 152.95752254 810.8758871 156.5 807 C161.23331851 801.82119269 166.01594724 796.69029399 170.80859375 791.56640625 C174.39387131 787.7300808 177.95752254 783.8758871 181.5 780 C185.63791184 775.47263764 189.81024595 770.97940488 194 766.5 C199.13247534 761.01193233 204.22974271 755.49404776 209.30078125 749.94921875 C217.10293432 741.424435 224.966465 732.95777992 232.85864258 724.51635742 C237.32269837 719.73709041 241.74417969 714.92107399 246.15625 710.09375 C250.00997055 705.88969122 253.91281644 701.73143815 257.80859375 697.56640625 C261.39387131 693.7300808 264.95752254 689.8758871 268.5 686 C273.23331851 680.82119269 278.01594724 675.69029399 282.80859375 670.56640625 C286.39387131 666.7300808 289.95752254 662.8758871 293.5 659 C298.23331851 653.82119269 303.01594724 648.69029399 307.80859375 643.56640625 C311.39387131 639.7300808 314.95752254 635.8758871 318.5 632 C323.23331851 626.82119269 328.01594724 621.69029399 332.80859375 616.56640625 C336.39387131 612.7300808 339.95752254 608.8758871 343.5 605 C348.23331851 599.82119269 353.01594724 594.69029399 357.80859375 589.56640625 C361.39387131 585.7300808 364.95752254 581.8758871 368.5 578 C373.22527251 572.82999596 377.9992167 567.707295 382.78442383 562.59277344 C387.49042203 557.55829852 392.15140699 552.48451287 396.79296875 547.390625 C399 545 399 545 400.86328125 543.484375 C402.26740528 542.00186411 402.26740528 542.00186411 401.76513672 539.68310547 C400.91579124 536.70470508 399.80258059 535.01310224 397.89453125 532.5859375 C397.24806641 531.75255859 396.60160156 530.91917969 395.93554688 530.06054688 C395.23494141 529.17431641 394.53433594 528.28808594 393.8125 527.375 C392.33850126 525.47760466 390.86587021 523.57914612 389.39453125 521.6796875 C388.28198975 520.24834473 388.28198975 520.24834473 387.14697266 518.78808594 C384.03042793 514.74090141 381.01105319 510.62593422 378 506.5 C372.99813246 499.66528834 367.90083054 492.9105878 362.75 486.1875 C358.00430122 479.99122915 353.34541901 473.75935893 348.85742188 467.37451172 C344.45680048 461.15600595 339.79652275 455.13633213 335.1640625 449.08984375 C330.71275775 443.27147162 326.3275176 437.41092227 322 431.5 C317.07450846 424.77491782 312.06651293 418.11946708 307 411.5 C301.34646605 404.11358208 295.78529806 396.66805534 290.2890625 389.1640625 C285.92722968 383.22328567 281.47945452 377.3524674 277 371.5 C271.34932439 364.11731654 265.78976064 356.67640427 260.29785156 349.17504883 C255.85518898 343.12220487 251.31621363 337.14752041 246.75 331.1875 C242.00430122 324.99122915 237.34541901 318.75935893 232.85742188 312.37451172 C228.45680048 306.15600595 223.79652275 300.13633213 219.1640625 294.08984375 C214.71275775 288.27147162 210.3275176 282.41092227 206 276.5 C201.07450846 269.77491782 196.06651293 263.11946708 191 256.5 C185.34932439 249.11731654 179.78976064 241.67640427 174.29785156 234.17504883 C169.85518898 228.12220487 165.31621363 222.14752041 160.75 216.1875 C156.00430122 209.99122915 151.34541901 203.75935893 146.85742188 197.37451172 C142.45680048 191.15600595 137.79652275 185.13633213 133.1640625 179.08984375 C128.71275775 173.27147162 124.3275176 167.41092227 120 161.5 C115.07450846 154.77491782 110.06651293 148.11946708 105 141.5 C99.34709535 134.11440426 93.78566162 126.67032996 88.29125977 119.16625977 C83.91217462 113.20041483 79.43927153 107.31114806 74.9375 101.4375 C69.33696835 94.12789855 63.87540878 86.7363662 58.51367188 79.25024414 C54.62066339 73.82566975 50.60262903 68.51932211 46.5078125 63.24609375 C42.15182187 57.6295215 37.92170978 51.91687906 33.66552734 46.22460938 C31.91153707 43.88184195 30.15349152 41.54216294 28.39453125 39.203125 C21.98469562 30.67728342 15.59455894 22.1370607 9.25 13.5625 C8.66557129 12.77576904 8.08114258 11.98903809 7.47900391 11.1784668 C6.93421387 10.44023682 6.38942383 9.70200684 5.828125 8.94140625 C5.3527832 8.29888916 4.87744141 7.65637207 4.38769531 6.99438477 C2.80934202 4.72598786 1.4126655 2.37433655 0 0 Z " fill="#FDFDFD" transform="translate(381,411)"/>
<path d="M0 0 C18.27186021 -0.4217015 36.54244739 -0.73847371 54.8181324 -0.93261909 C63.30538323 -1.02518963 71.78960023 -1.15121629 80.27490234 -1.35791016 C87.67665013 -1.5381227 95.07620074 -1.65362668 102.48008144 -1.69359291 C106.39681033 -1.71693988 110.30725834 -1.77118012 114.22195816 -1.90314102 C137.95883282 -2.67289641 137.95883282 -2.67289641 144.67321014 1.76810646 C149.05677525 5.90344279 152.12374717 10.59384659 154.89121437 15.9162178 C156.30854474 18.57985964 158.05839478 20.89203771 159.9375 23.24609375 C160.96081779 24.64141048 161.98173051 26.03849489 163 27.4375 C164.16926644 29.0325553 165.33853741 30.62760729 166.5078125 32.22265625 C167.67198018 33.81502727 168.83604326 35.40747478 170 37 C177.90719117 47.80439681 185.9011218 58.53128609 194.03857422 69.16357422 C199.00664488 75.66581386 203.87579599 82.23453424 208.7109375 88.8359375 C213.07277032 94.77671433 217.52054548 100.6475326 222 106.5 C227.64907609 113.88059367 233.20649686 121.31980072 238.69775391 128.81835938 C243.86339218 135.85479638 249.15581802 142.79111286 254.45874023 149.72436523 C258.3217933 154.78055186 262.12581398 159.86816539 265.83984375 165.03515625 C268.89112053 169.22307501 272.01045709 173.35901139 275.125 177.5 C280.10200157 184.11747268 285.0414583 190.75993267 289.9375 197.4375 C295.54763087 205.08319325 301.27521539 212.63338225 307.03881836 220.16381836 C312.00673002 226.66603498 316.87586332 233.23462618 321.7109375 239.8359375 C326.07277163 245.77671612 330.52062409 251.64747089 335 257.5 C340.67230923 264.91282362 346.26147242 272.37928057 351.78125 279.90625 C355.98326094 285.63280006 360.23040368 291.32368983 364.5 297 C369.35209548 303.45072667 374.16411515 309.92833884 378.9375 316.4375 C384.5476984 324.08314453 390.2752143 331.63338082 396.03881836 339.16381836 C401.00673002 345.66603498 405.87586332 352.23462618 410.7109375 358.8359375 C415.07277163 364.77671612 419.52062409 370.64747089 424 376.5 C429.67230923 383.91282362 435.26147242 391.37928057 440.78125 398.90625 C444.98326094 404.63280006 449.23040368 410.32368983 453.5 416 C458.35209548 422.45072667 463.16411515 428.92833884 467.9375 435.4375 C473.5476984 443.08314453 479.2752143 450.63338082 485.03881836 458.16381836 C490.00673002 464.66603498 494.87586332 471.23462618 499.7109375 477.8359375 C504.07277163 483.77671612 508.52062409 489.64747089 513 495.5 C518.67230923 502.91282362 524.26147242 510.37928057 529.78125 517.90625 C533.98326094 523.63280006 538.23040368 529.32368983 542.5 535 C547.35209548 541.45072667 552.16411515 547.92833884 556.9375 554.4375 C562.5476984 562.08314453 568.2752143 569.63338082 574.03881836 577.16381836 C579.00673002 583.66603498 583.87586332 590.23462618 588.7109375 596.8359375 C593.07277163 602.77671612 597.52062409 608.64747089 602 614.5 C607.67230923 621.91282362 613.26147242 629.37928057 618.78125 636.90625 C622.98326094 642.63280006 627.23040368 648.32368983 631.5 654 C636.35209548 660.45072667 641.16411515 666.92833884 645.9375 673.4375 C651.5476984 681.08314453 657.2752143 688.63338082 663.03881836 696.16381836 C668.00673002 702.66603498 672.87586332 709.23462618 677.7109375 715.8359375 C682.07277163 721.77671612 686.52062409 727.64747089 691 733.5 C696.67230923 740.91282362 702.26147242 748.37928057 707.78125 755.90625 C711.98326094 761.63280006 716.23040368 767.32368983 720.5 773 C725.35209548 779.45072667 730.16411515 785.92833884 734.9375 792.4375 C739.88604404 799.18143417 744.9173587 805.85661487 750 812.5 C755.37390435 819.53250064 760.72086736 826.583482 766 833.6875 C766.60585937 834.49574219 767.21171875 835.30398438 767.8359375 836.13671875 C768.38507812 836.87921875 768.93421875 837.62171875 769.5 838.38671875 C769.9846875 839.03858154 770.469375 839.69044434 770.96875 840.36206055 C772 842 772 842 772 844 C753.76299223 844.49230912 735.52772554 844.86170006 717.28549194 845.08805561 C708.81338385 845.19599269 700.34542125 845.34288311 691.87597656 845.58422852 C684.48665359 845.79469292 677.10033245 845.92927652 669.70809555 845.97585839 C665.79811211 846.00306764 661.89670797 846.06609383 657.98950195 846.22033119 C634.39464813 847.11563452 634.39464813 847.11563452 627.17431641 841.99670029 C622.29837837 837.17558703 618.82791532 831.71834006 615.55908203 825.72704124 C613.00758897 821.2641415 609.86760344 817.26425624 606.75 813.1875 C605.59571396 811.62087486 604.44424528 810.05216593 603.296875 808.48046875 C600.22650702 804.29857024 597.12023249 800.14477098 594 796 C589.70917798 790.30027261 585.46976112 784.56499947 581.25 778.8125 C575.57681778 771.08436511 569.78860854 763.44997046 563.96191406 755.8371582 C558.99377647 749.33460185 554.12437737 742.76570244 549.2890625 736.1640625 C544.92722868 730.22328431 540.4793966 724.35251303 536 718.5 C530.25628366 710.9943524 524.59794097 703.43312357 519.0078125 695.8125 C515.36846391 690.85201802 511.70023321 685.91521683 508 681 C503.70917798 675.30027261 499.46976112 669.56499947 495.25 663.8125 C489.57681778 656.08436511 483.78860854 648.44997046 477.96191406 640.8371582 C472.99377647 634.33460185 468.12437737 627.76570244 463.2890625 621.1640625 C458.92722968 615.22328567 454.47945452 609.3524674 450 603.5 C444.34932439 596.11731654 438.78976064 588.67640427 433.29785156 581.17504883 C428.85518898 575.12220487 424.31621363 569.14752041 419.75 563.1875 C415.00430122 556.99122915 410.34541901 550.75935893 405.85742188 544.37451172 C401.45680048 538.15600595 396.79652275 532.13633213 392.1640625 526.08984375 C387.71275775 520.27147162 383.3275176 514.41092227 379 508.5 C374.07450846 501.77491782 369.06651293 495.11946708 364 488.5 C358.34709535 481.11440426 352.78566162 473.67032996 347.29125977 466.16625977 C342.91217394 460.20041389 338.43922739 454.31118241 333.9375 448.4375 C328.47804344 441.3110338 323.15285679 434.10808763 317.93115234 426.80615234 C313.09029957 420.06401342 308.06036289 413.47399729 303.01171875 406.88671875 C298.6105482 401.1365304 294.27779075 395.34246346 290 389.5 C285.07447611 382.77494119 280.06651345 376.11946776 275 369.5 C269.34646605 362.11358208 263.78529806 354.66805534 258.2890625 347.1640625 C253.92722968 341.22328567 249.47945452 335.3524674 245 329.5 C239.34932439 322.11731654 233.78976064 314.67640427 228.29785156 307.17504883 C223.85518898 301.12220487 219.31621363 295.14752041 214.75 289.1875 C210.00430122 282.99122915 205.34541901 276.75935893 200.85742188 270.37451172 C196.45680048 264.15600595 191.79652275 258.13633213 187.1640625 252.08984375 C182.71275775 246.27147162 178.3275176 240.41092227 174 234.5 C169.07450846 227.77491782 164.06651293 221.11946708 159 214.5 C153.34932439 207.11731654 147.78976064 199.67640427 142.29785156 192.17504883 C137.85518898 186.12220487 133.31621363 180.14752041 128.75 174.1875 C124.40882507 168.51939991 120.10621175 162.84095905 116 157 C109.28406332 147.45645098 102.10000731 138.25874919 95 129 C79.19328837 108.38729187 79.19328837 108.38729187 72.85693359 99.37402344 C68.45680072 93.15545906 63.79637614 87.13614077 59.1640625 81.08984375 C54.71275775 75.27147162 50.3275176 69.41092227 46 63.5 C41.07450764 56.77491669 36.06647086 50.11950051 31 43.5 C25.19470853 35.91439114 19.47148786 28.27508925 13.82763672 20.56860352 C11.28637549 17.09890423 8.73798834 13.63786213 6.12890625 10.21875 C5.48683228 9.37582397 5.48683228 9.37582397 4.83178711 8.51586914 C3.71736462 7.05830463 2.59721832 5.6051212 1.4765625 4.15234375 C0 2 0 2 0 0 Z " fill="#000000" transform="translate(517,479)"/>
</svg>
